<svg width="1730" height="864" viewBox="0 0 1730 864" fill="none" xmlns="http://www.w3.org/2000/svg">
<path d="M12 0C5.37261 0 0 5.37258 0 12V852C0 858.627 5.37258 864 12 864H1718C1724.63 864 1730 858.627 1730 852V12C1730 5.37259 1724.63 0 1718 0H12Z" fill="#161B22"/>
<g clip-path="url(#clip0_3637_24733)">
<path d="M85 83H1644.5C1650.58 83 1655.5 87.9249 1655.5 94V770C1655.5 776.075 1650.58 781 1644.5 781H85C78.9249 781 74 776.075 74 770V94C74 87.9249 78.9249 83 85 83Z" fill="#161B22" stroke="white" stroke-width="2"/>
<path d="M78.5 83H82.8838C82.9173 83 82.9392 83.0129 82.9492 83.0215C82.9455 87.685 79.4247 91.5163 74.9121 91.9971C74.4046 91.9742 74 91.5572 74 91.0439V87.5C74 85.0147 76.0147 83 78.5 83Z" fill="#161B22" stroke="white" stroke-width="2"/>
<path d="M73.9746 776.475V772.091C73.9746 772.058 73.9875 772.036 73.9961 772.026C78.6596 772.03 82.4909 775.55 82.9717 780.063C82.9488 780.571 82.5318 780.975 82.0186 780.975H78.4746C75.9893 780.975 73.9746 778.96 73.9746 776.475Z" fill="#161B22" stroke="white" stroke-width="2"/>
<path d="M1648.52 781H1644.14C1644.11 781 1644.08 780.987 1644.07 780.979C1644.08 776.315 1647.6 772.484 1652.11 772.003C1652.62 772.026 1653.02 772.443 1653.02 772.956V776.5C1653.02 778.985 1651.01 781 1648.52 781Z" fill="#161B22" stroke="white" stroke-width="2"/>
<path d="M1653.05 87.5244V91.9082C1653.05 91.9417 1653.04 91.9636 1653.03 91.9736C1648.37 91.97 1644.53 88.4491 1644.05 83.9365C1644.08 83.429 1644.49 83.0244 1645.01 83.0244H1648.55C1651.04 83.0244 1653.05 85.0391 1653.05 87.5244Z" fill="#161B22" stroke="white" stroke-width="2"/>
<g clip-path="url(#clip1_3637_24733)">
<circle cx="197" cy="435" r="99" fill="#161B22" stroke="white" stroke-width="2"/>
<path d="M85.5 213H241.5C247.575 213 252.5 217.925 252.5 224V640C252.5 646.075 247.575 651 241.5 651H85.5C79.4249 651 74.5 646.075 74.5 640V224C74.5 218.115 79.1217 213.309 84.9336 213.015L85.5 213Z" fill="#161B22" stroke="white" stroke-width="2"/>
<path d="M85.5 336H121.5C127.575 336 132.5 340.925 132.5 347V523C132.5 529.075 127.575 534 121.5 534H85.5C79.4249 534 74.5 529.075 74.5 523V347C74.5 340.925 79.4249 336 85.5 336Z" fill="#161B22" stroke="white" stroke-width="2"/>
<path d="M57 393.5H63C69.0751 393.5 74 398.425 74 404.5V460.5C74 466.575 69.0751 471.5 63 471.5H57C50.9249 471.5 46 466.575 46 460.5V404.5C46 398.425 50.9249 393.5 57 393.5Z" fill="#161B22" stroke="white" stroke-width="2"/>
<circle cx="197" cy="432" r="3" fill="white"/>
</g>
<g clip-path="url(#clip2_3637_24733)">
<circle cx="1532.5" cy="429" r="99" transform="rotate(-180 1532.5 429)" fill="#161B22" stroke="white" stroke-width="2"/>
<path d="M1644 651H1488C1481.92 651 1477 646.075 1477 640V224C1477 217.925 1481.92 213 1488 213H1644C1650.08 213 1655 217.925 1655 224V640C1655 645.885 1650.38 650.691 1644.57 650.985L1644 651Z" fill="#161B22" stroke="white" stroke-width="2"/>
<path d="M1644 528H1608C1601.92 528 1597 523.075 1597 517V341C1597 334.925 1601.92 330 1608 330H1644C1650.08 330 1655 334.925 1655 341V517C1655 523.075 1650.08 528 1644 528Z" fill="#161B22" stroke="white" stroke-width="2"/>
<path d="M1672.5 470.5H1666.5C1660.42 470.5 1655.5 465.575 1655.5 459.5V403.5C1655.5 397.425 1660.42 392.5 1666.5 392.5H1672.5C1678.58 392.5 1683.5 397.425 1683.5 403.5V459.5C1683.5 465.575 1678.58 470.5 1672.5 470.5Z" fill="#161B22" stroke="white" stroke-width="2"/>
<circle cx="1532.5" cy="432" r="3" transform="rotate(-180 1532.5 432)" fill="white"/>
</g>
<g clip-path="url(#clip3_3637_24733)">
<path d="M865 333C919.681 333 964 377.105 964 431.5C964 485.895 919.681 530 865 530C810.319 530 766 485.895 766 431.5C766 377.105 810.319 333 865 333Z" fill="#161B22" stroke="white" stroke-width="2"/>
<path d="M865 82C864.448 82 864 82.4477 864 83V781C864 781.552 864.448 782 865 782C865.552 782 866 781.552 866 781V83C866 82.4477 865.552 82 865 82Z" fill="#D8D8D8"/>
<circle cx="864.961" cy="431.999" r="3" fill="white"/>
</g>
</g>
<defs>
<clipPath id="clip0_3637_24733">
<rect width="1639.5" height="700" fill="white" transform="translate(45 82)"/>
</clipPath>
<clipPath id="clip1_3637_24733">
<rect width="252" height="440" fill="white" transform="translate(45 212)"/>
</clipPath>
<clipPath id="clip2_3637_24733">
<rect width="252" height="440" fill="white" transform="matrix(-1 0 0 -1 1684.5 652)"/>
</clipPath>
<clipPath id="clip3_3637_24733">
<rect width="200" height="700" fill="white" transform="translate(765 82)"/>
</clipPath>
</defs>
</svg>
