<svg width="1146" height="864" viewBox="0 0 1146 864" fill="none" xmlns="http://www.w3.org/2000/svg">
<g clip-path="url(#clip0_3388_24583)">
<path d="M12 0C5.37261 0 0 5.37258 0 12V852C0 858.627 5.37258 864 12 864H1134C1140.63 864 1146 858.627 1146 852V12C1146 5.37259 1140.63 0 1134 0H12Z" fill="#161B22"/>
<g clip-path="url(#clip1_3388_24583)">
<path d="M85 83H1061C1067.08 83 1072 87.9249 1072 94V770C1072 776.075 1067.08 781 1061 781H85C78.9249 781 74 776.075 74 770V94C74 87.9249 78.9249 83 85 83Z" fill="#161B22" stroke="white" stroke-width="2"/>
<path d="M78.5 83H82.8838C82.9173 83 82.9392 83.0129 82.9492 83.0215C82.9455 87.685 79.4247 91.5163 74.9121 91.9971C74.4046 91.9742 74 91.5572 74 91.0439V87.5C74 85.0147 76.0147 83 78.5 83Z" fill="#161B22" stroke="white" stroke-width="2"/>
<path d="M73.9746 776.475V772.091C73.9746 772.058 73.9875 772.036 73.9961 772.026C78.6596 772.03 82.4909 775.55 82.9717 780.063C82.9488 780.571 82.5318 780.975 82.0186 780.975H78.4746C75.9893 780.975 73.9746 778.96 73.9746 776.475Z" fill="#161B22" stroke="white" stroke-width="2"/>
<path d="M1067.53 781H1063.14C1063.11 781 1063.09 780.987 1063.08 780.979C1063.08 776.315 1066.6 772.484 1071.11 772.003C1071.62 772.026 1072.03 772.443 1072.03 772.956V776.5C1072.03 778.985 1070.01 781 1067.53 781Z" fill="#161B22" stroke="white" stroke-width="2"/>
<path d="M1072.05 87.5247V91.9084C1072.05 91.942 1072.04 91.9639 1072.03 91.9739C1067.36 91.9702 1063.53 88.4494 1063.05 83.9368C1063.07 83.4292 1063.49 83.0247 1064 83.0247H1067.55C1070.03 83.0247 1072.05 85.0394 1072.05 87.5247Z" fill="#161B22" stroke="white" stroke-width="2"/>
<g clip-path="url(#clip2_3388_24583)">
<circle cx="197" cy="435" r="99" fill="#161B22" stroke="white" stroke-width="2"/>
<path d="M85.5 213H241.5C247.575 213 252.5 217.925 252.5 224V640C252.5 646.075 247.575 651 241.5 651H85.5C79.4249 651 74.5 646.075 74.5 640V224C74.5 218.115 79.1217 213.309 84.9336 213.015L85.5 213Z" fill="#161B22" stroke="white" stroke-width="2"/>
<path d="M85.5 336H121.5C127.575 336 132.5 340.925 132.5 347V523C132.5 529.075 127.575 534 121.5 534H85.5C79.4249 534 74.5 529.075 74.5 523V347C74.5 340.925 79.4249 336 85.5 336Z" fill="#161B22" stroke="white" stroke-width="2"/>
<path d="M57 393.5H63C69.0751 393.5 74 398.425 74 404.5V460.5C74 466.575 69.0751 471.5 63 471.5H57C50.9249 471.5 46 466.575 46 460.5V404.5C46 398.425 50.9249 393.5 57 393.5Z" fill="#161B22" stroke="white" stroke-width="2"/>
<circle cx="197" cy="432" r="3" fill="white"/>
</g>
<g clip-path="url(#clip3_3388_24583)">
<circle cx="949" cy="429" r="99" transform="rotate(-180 949 429)" fill="#161B22" stroke="white" stroke-width="2"/>
<path d="M1060.5 651H904.5C898.425 651 893.5 646.075 893.5 640V224C893.5 217.925 898.425 213 904.5 213H1060.5C1066.58 213 1071.5 217.925 1071.5 224V640C1071.5 645.885 1066.88 650.691 1061.07 650.985L1060.5 651Z" fill="#161B22" stroke="white" stroke-width="2"/>
<path d="M1060.5 528H1024.5C1018.42 528 1013.5 523.075 1013.5 517V341C1013.5 334.925 1018.42 330 1024.5 330H1060.5C1066.58 330 1071.5 334.925 1071.5 341V517C1071.5 523.075 1066.58 528 1060.5 528Z" fill="#161B22" stroke="white" stroke-width="2"/>
<path d="M1089 470.5H1083C1076.92 470.5 1072 465.575 1072 459.5V403.5C1072 397.425 1076.92 392.5 1083 392.5H1089C1095.08 392.5 1100 397.425 1100 403.5V459.5C1100 465.575 1095.08 470.5 1089 470.5Z" fill="#161B22" stroke="white" stroke-width="2"/>
<circle cx="949" cy="432" r="3" transform="rotate(-180 949 432)" fill="white"/>
</g>
<g clip-path="url(#clip4_3388_24583)">
<path d="M573 333C627.681 333 672 377.105 672 431.5C672 485.895 627.681 530 573 530C518.319 530 474 485.895 474 431.5C474 377.105 518.319 333 573 333Z" fill="#161B22" stroke="white" stroke-width="2"/>
<path d="M573 82C572.448 82 572 82.4477 572 83V781C572 781.552 572.448 782 573 782C573.552 782 574 781.552 574 781V83C574 82.4477 573.552 82 573 82Z" fill="#D8D8D8"/>
<circle cx="572.961" cy="431.999" r="3" fill="white"/>
</g>
</g>
</g>
<defs>
<clipPath id="clip0_3388_24583">
<rect width="1146" height="864" fill="white"/>
</clipPath>
<clipPath id="clip1_3388_24583">
<rect width="1056" height="700" fill="white" transform="translate(45 82)"/>
</clipPath>
<clipPath id="clip2_3388_24583">
<rect width="252" height="440" fill="white" transform="translate(45 212)"/>
</clipPath>
<clipPath id="clip3_3388_24583">
<rect width="252" height="440" fill="white" transform="matrix(-1 0 0 -1 1101 652)"/>
</clipPath>
<clipPath id="clip4_3388_24583">
<rect width="200" height="700" fill="white" transform="translate(473 82)"/>
</clipPath>
</defs>
</svg>
