<svg width="36" height="20" viewBox="0 0 36 20" fill="none" xmlns="http://www.w3.org/2000/svg">
<path d="M31.7368 10.0599C25.2282 8.28761 15.8462 4.50541 15.752 4.46393C15.7482 4.46393 15.7444 4.46016 15.7406 4.46016C15.6878 4.43754 15.6351 4.42245 15.5823 4.4036C15.5785 4.4036 15.5785 4.39983 15.5747 4.39983C15.1109 4.2226 12.7315 3.20823 11.4154 0.527123C11.1967 0.0821582 10.6726 -0.117699 10.2125 0.0708451C9.75247 0.25939 9.51867 0.76846 9.67328 1.23982C9.68459 1.27753 10.8196 4.89759 9.20192 6.52284C8.81729 6.58694 8.38364 6.62465 7.87079 6.62465C5.81943 6.62465 5.50645 5.92704 5.17838 5.18417C4.97852 4.73544 4.72964 4.18112 4.11122 3.9247C3.7643 3.7814 3.18735 3.75123 2.43694 4.40737C2.03723 4.75429 -1.4056 8.03873 0.64954 16.067C0.834314 16.7872 1.36601 17.2171 2.65188 17.4735C2.9083 17.8468 3.35327 18.5595 3.46262 19.0233C3.49656 19.1704 3.59083 19.2986 3.71904 19.3778C3.75298 19.3967 4.40912 19.7926 5.40086 19.7926C5.62334 19.7926 5.86468 19.7737 6.11733 19.7247C6.39261 19.6719 6.58869 19.4231 6.57738 19.144C6.55475 18.6312 6.63771 18.0203 6.75084 17.828C6.98464 17.8431 7.35795 17.9599 7.44091 19.0346C7.45977 19.2948 7.65585 19.506 7.91227 19.5475C8.12344 19.5814 9.217 19.7436 9.89199 19.4042C10.1069 19.2948 10.2314 19.0648 10.2012 18.8235C10.156 18.4652 10.1824 18.0241 10.254 17.8619C10.2842 17.8581 10.3106 17.843 10.337 17.8355C10.5368 17.8355 10.7367 17.8355 10.9441 17.8355C13.7798 17.8355 14.7225 17.975 15.7218 18.1221C16.5929 18.2503 17.5507 18.3898 19.7189 18.4615C19.7491 18.4728 19.7755 18.4879 19.8094 18.4916C19.817 18.4916 20.7371 18.6538 20.7371 19.227C20.7371 19.4608 20.8804 19.6682 21.0953 19.7511C21.1896 19.7888 21.7477 20 22.3736 20C22.747 20 23.1467 19.9246 23.4823 19.6946C23.6369 19.589 23.7274 19.4155 23.7274 19.227V19.0045L24.5947 18.4803C25.6996 18.4426 26.7441 18.3597 27.7132 18.239L27.996 18.8574C28.0149 18.8989 28.0413 18.9404 28.0715 18.9781C28.1921 19.1289 28.4372 19.2986 28.7691 19.3326C28.8105 19.3363 28.8483 19.3401 28.8897 19.3401C29.2631 19.3401 29.6552 19.1704 30.0587 18.8348C30.2095 18.7104 30.2812 18.518 30.2586 18.3257C30.251 18.2767 30.2058 17.8544 30.5829 17.7488C30.6281 17.7375 30.6696 17.7148 30.7073 17.6922C30.9713 17.6243 31.2277 17.5527 31.4766 17.4773C31.5067 17.5489 31.5294 17.6319 31.5369 17.7262C31.5633 18.0203 31.8084 18.2428 32.0988 18.2428C32.1101 18.2428 32.1214 18.2428 32.1327 18.2428C32.2194 18.239 33.0113 18.1787 33.5128 17.6319C33.5845 17.5565 33.6335 17.4584 33.6524 17.3566C33.6901 17.1643 33.8371 16.6552 34.0936 16.3309C35.1456 15.6597 35.7792 14.8527 35.8998 13.9402C36.0054 13.1445 35.8131 11.1686 31.7368 10.0599ZM3.49279 6.01754C3.90005 6.92255 4.68062 8.50633 7.87834 8.50633C10.6198 8.50633 11.9019 7.62017 12.7993 6.86599C12.8144 6.85468 12.8257 6.84336 12.8371 6.83205C12.8861 6.79057 12.9351 6.74909 12.9804 6.71138C13.0105 6.68499 13.0407 6.66236 13.0671 6.63597C13.3348 6.40594 13.5309 6.23625 13.7194 6.13067C13.7722 6.1005 13.825 6.08164 13.8741 6.06279C13.8891 6.05902 13.9004 6.05148 13.9155 6.04771C13.9683 6.03262 14.0249 6.02131 14.0815 6.01377C14.0928 6.01377 14.1041 6.01 14.1192 6.01C14.1833 6.00623 14.2549 6.00623 14.3303 6.01754C14.3341 6.01754 14.3379 6.01754 14.3416 6.01754C14.5 6.03639 14.681 6.08542 14.9035 6.1646C14.9525 6.18346 14.994 6.19477 15.0468 6.21362C15.1071 6.23625 15.6087 6.43988 16.4194 6.75663C12.1658 7.88413 9.31505 10.6256 7.67848 12.2056C7.15433 12.7109 6.70182 13.1483 6.49065 13.2312C6.12864 13.3783 5.73647 12.4243 5.45365 11.7342C5.11804 10.9235 4.85408 10.2786 4.37518 10.2334C3.68888 10.1617 2.70845 11.3156 2.00706 13.088C1.5357 9.03425 2.79141 6.80566 3.49279 6.01754ZM10.9441 15.9501C8.45905 15.9501 3.35704 15.9501 2.44448 15.4636C2.34267 15.0564 2.26348 14.6717 2.19183 14.2909C2.84797 12.0133 3.95661 10.7915 4.3073 10.7915C4.31107 10.7915 4.31485 10.7915 4.31862 10.7915C4.48076 10.8518 4.76358 11.5381 4.93327 11.9454C5.32921 12.907 5.8232 14.1023 6.70182 13.7554C7.0148 13.631 7.43714 13.2237 8.07442 12.6128C9.77132 10.9763 12.8031 8.06136 17.3584 7.12241C18.746 7.65788 20.639 8.37435 22.7168 9.12098L29.214 13.0804L31.9555 12.7448L29.923 11.5042C30.3755 11.6362 30.8167 11.7644 31.2465 11.8813C33.2564 12.4281 34.0973 13.2049 34.0332 13.6951C33.9088 14.6114 30.975 16.6251 23.0486 16.6251C23.0411 16.6251 23.0335 16.6251 23.026 16.6251C18.4708 16.6251 17.2151 16.4403 16.0008 16.2593C14.9299 16.1009 13.9193 15.9501 10.9441 15.9501Z" fill="black"/>
<path d="M13.373 10.0298L20.1946 14.1891L22.936 13.8497L16.1107 9.69043L13.373 10.0298Z" fill="black"/>
<path d="M27.4457 13.2989L20.6203 9.13965L17.8789 9.47526L24.7042 13.6345L27.4457 13.2989Z" fill="black"/>
</svg>
