<svg width="24" height="24" viewBox="0 0 24 24" fill="none" xmlns="http://www.w3.org/2000/svg">
<g clip-path="url(#clip0_466_8609)">
<path d="M11.1048 18.79L10.1048 19.782C9.33774 20.5423 8.30495 20.9744 7.22497 20.9868C6.14499 20.9993 5.10252 20.5911 4.31811 19.8486C3.53371 19.1062 3.06889 18.0877 3.02199 17.0087C2.9751 15.9297 3.3498 14.8747 4.06684 14.067L4.22384 13.901L12.5058 5.5L14.0058 7L17.4558 3.609C17.836 3.23227 18.3467 3.01657 18.8818 3.00676C19.4169 2.99695 19.9352 3.19377 20.3289 3.55631C20.7226 3.91885 20.9614 4.41919 20.9957 4.95329C21.03 5.48739 20.857 6.01414 20.5128 6.424L20.3968 6.55L17.0058 10L18.5058 11.5L14.8378 15.117" stroke="#001029" stroke-width="2" stroke-linecap="round" stroke-linejoin="round"/>
<path d="M10.5 7.5L16.5 13.5" stroke="#001029" stroke-width="2" stroke-linecap="round" stroke-linejoin="round"/>
<path d="M11 18C11 18.394 11.0776 18.7841 11.2284 19.1481C11.3791 19.512 11.6001 19.8427 11.8787 20.1213C12.1573 20.3999 12.488 20.6209 12.8519 20.7716C13.2159 20.9224 13.606 21 14 21C14.394 21 14.7841 20.9224 15.1481 20.7716C15.512 20.6209 15.8427 20.3999 16.1213 20.1213C16.3999 19.8427 16.6209 19.512 16.7716 19.1481C16.9224 18.7841 17 18.394 17 18C17 17.606 16.9224 17.2159 16.7716 16.8519C16.6209 16.488 16.3999 16.1573 16.1213 15.8787C15.8427 15.6001 15.512 15.3791 15.1481 15.2284C14.7841 15.0776 14.394 15 14 15C13.606 15 13.2159 15.0776 12.8519 15.2284C12.488 15.3791 12.1573 15.6001 11.8787 15.8787C11.6001 16.1573 11.3791 16.488 11.2284 16.8519C11.0776 17.2159 11 17.606 11 18Z" stroke="#001029" stroke-width="2" stroke-linecap="round" stroke-linejoin="round"/>
</g>
<defs>
<clipPath id="clip0_466_8609">
<rect width="24" height="24" fill="white"/>
</clipPath>
</defs>
</svg>
