<svg width="24" height="24" viewBox="0 0 24 24" fill="none" xmlns="http://www.w3.org/2000/svg">
<path d="M20.9941 6.45822H19.6737V6.4107C20.0246 6.36523 20.2994 6.07736 20.2994 5.71429C20.2994 5.31982 19.9799 5 19.5851 5H11.2693C10.8749 5 10.555 5.31982 10.555 5.71429C10.555 6.07744 10.8303 6.36544 11.1811 6.41074V6.45822H9.86063C9.30608 6.45822 8.85477 6.90953 8.85477 7.46408V7.76088C8.85477 9.38346 9.9276 10.7502 11.4529 11.1747C11.5036 11.3101 11.5605 11.442 11.6242 11.5705H5.69873C3.65911 11.5705 2 13.2296 2 15.2693C2 17.3085 3.65911 18.9676 5.69873 18.9676C6.64914 18.9676 7.55908 18.6014 8.24302 17.9531H9.89865C10.3538 18.3845 10.9135 18.6769 11.5142 18.8337C11.6286 18.9115 11.7589 18.9676 11.9076 18.9676H18.9475C19.3424 18.9676 19.6618 18.6478 19.6618 18.2533C19.6618 17.8589 19.3424 17.5391 18.9475 17.5391H18.3602V16.7128C18.3602 16.0418 17.814 15.4956 17.143 15.4956H16.142V13.8751C17.6458 13.6186 18.8798 12.5708 19.4019 11.1748C20.9272 10.7504 22 9.38341 22 7.76088V7.46408C22 6.90953 21.5487 6.45822 20.9941 6.45822ZM7.40388 16.7672C6.9728 17.2576 6.35128 17.5391 5.69873 17.5391C4.44699 17.5391 3.42857 16.521 3.42857 15.2693C3.42857 14.0175 4.44699 12.9991 5.69873 12.9991H12.4433C13.695 12.9991 14.7134 14.0175 14.7134 15.2693C14.7134 16.521 13.695 17.5391 12.4433 17.5391C11.7907 17.5391 11.1689 17.2576 10.7378 16.7672C10.6025 16.6131 10.4068 16.5245 10.2014 16.5245H7.94029C7.73486 16.5245 7.5392 16.6131 7.40388 16.7672ZM10.2868 7.88679H11.1811V9.49463C10.6661 9.13047 10.325 8.55063 10.2868 7.88679ZM15.3415 17.5391C15.4918 17.3476 15.6223 17.1432 15.7331 16.9242H16.9316V17.5391H15.3415ZM15.4277 12.5115C15.2061 12.5115 14.993 12.4796 14.786 12.431C14.4132 12.1228 13.9831 11.8898 13.5092 11.7458C12.959 11.2313 12.6097 10.5048 12.6097 9.69378V6.42857H18.2451V9.69378C18.2451 11.2476 16.9812 12.5115 15.4277 12.5115ZM19.6737 9.49467V7.88679H20.5679C20.5301 8.55068 20.1888 9.13051 19.6737 9.49467Z" fill="#001029"/>
<path d="M6.39092 14.5177C6.33599 14.1778 6.05423 13.9136 5.69887 13.9136C5.34351 13.9136 5.06179 14.1778 5.00686 14.5176C4.66703 14.5725 4.40283 14.8543 4.40283 15.2096C4.40283 15.565 4.66707 15.8467 5.00695 15.9017C5.06206 16.2413 5.34365 16.5053 5.69887 16.5053C6.05414 16.5053 6.33573 16.2413 6.39083 15.9016C6.73054 15.8465 6.99456 15.5649 6.99456 15.2096C6.99456 14.8544 6.73058 14.5728 6.39092 14.5177Z" fill="#001029"/>
<path d="M12.8424 15.9239C13.2372 15.9239 13.5567 15.604 13.5567 15.2096C13.5567 14.8151 13.2372 14.4953 12.8424 14.4953H12.8354C12.441 14.4953 12.125 14.8151 12.125 15.2096C12.125 15.604 12.4483 15.9239 12.8424 15.9239Z" fill="#001029"/>
</svg>
