<svg width="24" height="24" viewBox="0 0 24 24" fill="none" xmlns="http://www.w3.org/2000/svg">
<path d="M12 2C17.5228 2 22 6.47715 22 12C22 14.2643 21.2462 16.352 19.9775 18.0283C19.8875 17.2128 19.5179 16.4819 18.9658 15.9336C19.6233 14.7719 20 13.4302 20 12L19.9971 11.8096L18.7051 10.8721L16.3125 11.6494L15.2842 14.8203L15.4668 15.0713C14.8086 15.2743 14.2328 15.6661 13.8037 16.1836L13.6699 16H10.3291L8.9502 17.8965L9.50488 19.6035C10.29 19.861 11.1288 20 12 20C12.4512 20 12.8934 19.9614 13.3242 19.8896C13.6607 20.614 14.2382 21.2027 14.9531 21.5557C14.0196 21.8438 13.0281 22 12 22C6.47715 22 2 17.5228 2 12C2 6.47715 6.47715 2 12 2ZM17.9854 17.4268L16.9951 18.417L17.9854 19.4062L17.4902 19.9014L16.5 18.9121L15.5098 19.9014L15.0146 19.4062L16.0049 18.417L15.0146 17.4268L15.5098 16.9316L16.5 17.9219L17.4902 16.9316L17.9854 17.4268ZM4.00195 11.8096L4 12C4 13.7297 4.54926 15.3311 5.48242 16.6396H7.39258L8.71484 14.8203L7.68652 11.6494L5.29395 10.8721L4.00195 11.8096ZM9.65625 11.2383L10.5518 14H13.4473L14.3428 11.2383L12 9.53613L9.65625 11.2383ZM9.70801 4.33301C8.00077 4.84275 6.53224 5.90737 5.5127 7.31738L6.06641 9.01953L8.30566 9.74707L10.999 7.79004V5.27246L9.70801 4.33301ZM12.999 5.27246V7.79004L15.6934 9.74707L17.9326 9.01953L18.4863 7.31641C17.4666 5.90667 15.9982 4.84251 14.291 4.33301L12.999 5.27246Z" fill="#001029"/>
</svg>
