<svg width="24" height="24" viewBox="0 0 24 24" fill="none" xmlns="http://www.w3.org/2000/svg">
<path d="M21.2303 6.74424C21.209 6.70152 21.1816 6.65881 21.1603 6.61609C21.0995 6.50015 21.0386 6.38725 20.9717 6.27436C19.4506 3.70529 16.3626 2.15226 12.4138 2.00275C11.9156 1.99089 11.4172 2.01741 10.923 2.08208C10.5336 2.12785 10.1168 2.18887 9.67874 2.256L8.76605 2.40245C7.72255 2.57637 6.59386 2.75944 5.47734 2.86012C5.08488 2.89369 4.69851 2.9181 4.31214 2.92725C3.5356 2.94697 2.75946 2.87426 2 2.71062V3.64732C3.02117 3.82608 4.06092 3.87324 5.09401 3.78767C5.96878 4.8449 6.78143 5.95231 7.52784 7.10428L7.32705 7.1775L5.47734 7.84876C4.39124 8.24541 3.21083 8.67562 2.01217 9.09363V10.0639C3.27168 9.63063 4.54944 9.14855 5.79069 8.70918L6.86766 8.30948C6.35477 10.0274 6.48988 11.8744 7.24728 13.4989C8.00467 15.1233 9.3314 16.4115 10.9748 17.1182C9.1007 18.5003 7.47612 19.7299 6.23182 20.8039C5.17711 19.1704 4.21523 17.4784 3.35078 15.736C2.85184 14.7352 2.40462 13.7619 2 12.813V15.0342C2.17341 15.4065 2.34986 15.7756 2.5324 16.1418C3.43369 17.9582 4.43933 19.7207 5.54427 21.4203C5.33131 21.6217 5.13356 21.8139 4.95102 22H7.03803L6.7338 21.5667C8.29145 20.2212 10.3845 18.6803 12.0213 17.4873C12.1521 17.5209 12.2799 17.5575 12.4107 17.585L12.3073 17.2799L12.4016 17.2127L12.5567 17.0998C13.17 18.6948 13.6662 20.3325 14.0414 22H15.672C16.3446 20.9445 17.0854 19.9345 17.8899 18.9763L18.2793 18.4973L18.7843 17.887C19.2395 17.3398 19.665 16.7684 20.059 16.1754C22.146 12.8649 22.572 9.4262 21.2303 6.74424ZM16.4357 14.4728L15.7694 16.5079C15.1537 16.706 14.5115 16.8089 13.8649 16.813C13.7159 16.813 13.5607 16.813 13.4177 16.7947C13.3842 16.7093 13.3569 16.6239 13.3234 16.5354C14.2756 15.8397 15.1488 15.1929 15.7816 14.6711L16.2775 14.2562L16.4357 14.4728ZM15.2187 13.9633C14.6377 14.4392 13.8558 15.0251 12.9887 15.6597C12.6845 14.9366 12.3803 14.2013 12.0396 13.4629L12.4046 12.9594H15.3496L15.7542 13.5178C15.5686 13.6643 15.3861 13.8138 15.2066 13.9633H15.2187ZM11.7353 12.8282C11.571 12.4804 11.4027 12.1326 11.2303 11.7847C10.8247 10.9914 10.419 10.2195 10.0134 9.46892L10.99 9.77403L11.9026 12.5933L11.7353 12.8282ZM15.8363 12.6086L16.1406 11.6322C15.885 10.9792 15.6021 10.3324 15.2887 9.70691C14.7854 8.68823 14.2078 7.70819 13.5607 6.77475V7.44906L11.1542 9.20347L9.554 8.68172C9.45665 8.51086 9.35625 8.34609 9.24977 8.18133L9.0429 7.54059C9.72133 7.31175 10.3359 7.11343 10.847 6.97613C11.8601 6.70458 12.7819 6.49405 13.6155 6.33233C13.8021 6.5927 13.9846 6.85815 14.1631 7.12869C14.2908 7.32396 14.4156 7.52534 14.5403 7.73892C14.7168 8.02572 14.8892 8.31863 15.0575 8.61765L15.0758 8.65121C15.2461 8.95633 15.4104 9.26754 15.5686 9.58486C15.7004 9.8493 15.8262 10.1147 15.9459 10.3812V10.4087C16.0635 10.669 16.1761 10.9304 16.2835 11.1928C16.4722 11.6566 16.6456 12.1082 16.8038 12.5872C16.606 12.7672 16.4022 12.9503 16.1953 13.1364L15.8363 12.6086ZM18.9881 6.59168L18.328 8.62985L16.5786 9.20042L16.2988 9.01125C15.7984 8.02259 15.2312 7.06942 14.6012 6.15842C15.8771 5.9214 17.1802 5.869 18.471 6.00281C18.6551 6.18843 18.8278 6.38508 18.9881 6.59168ZM17.3027 5.01424C16.4267 5.02167 15.5523 5.09203 14.6863 5.22477L15.9033 4.33688C16.3948 4.50548 16.8637 4.734 17.2997 5.01729L17.3027 5.01424ZM16.7247 9.85947L16.749 9.78624L18.5135 9.20957L19.3623 9.8198C18.8084 10.5502 18.1981 11.2358 17.537 11.8702C17.3017 11.1989 17.0309 10.5287 16.7247 9.85947ZM17.8686 12.8465C18.6841 12.0883 19.4323 11.2604 20.1047 10.3721L20.2507 10.4789C20.2368 11.7832 19.8237 13.0517 19.0672 14.1128H18.2124C18.1241 13.6887 17.9964 13.2676 17.8686 12.8465ZM12.3772 2.89064C13.0067 2.9157 13.6338 2.98297 14.2543 3.09201C14.1266 3.09201 13.9957 3.09201 13.8649 3.09201C13.3159 3.09387 12.7688 3.15836 12.2343 3.28423C12.1095 3.15609 11.9848 3.02794 11.857 2.90589C12.0396 2.88758 12.216 2.88453 12.3772 2.89064ZM8.92425 3.28118C9.53271 3.18355 10.0955 3.08896 10.634 3.01573C10.8368 3.19473 11.0397 3.38085 11.2425 3.57409C11.3855 3.71139 11.5254 3.85785 11.6684 4.00125L11.781 4.1172C11.9554 4.30027 12.1268 4.4874 12.2951 4.67861C12.5385 4.95321 12.7788 5.23392 13.01 5.52378C12.1491 5.70075 11.3307 5.90212 10.6218 6.09129C10.0864 6.2347 9.46273 6.43302 8.77213 6.66796L8.7478 6.59168C9.4832 5.60083 10.4877 4.84344 11.641 4.41011C11.4098 4.16602 11.1745 3.93006 10.9352 3.70224C9.74563 4.23335 8.71862 5.07273 7.95984 6.13401C7.37268 5.25833 6.78248 4.44062 6.19227 3.69309C7.12626 3.5802 8.05415 3.42764 8.92425 3.28118ZM10.8013 14.1128H8.67174C7.91037 13.0523 7.49293 11.7825 7.47612 10.4758L8.69304 9.60317C8.43444 9.1516 8.1728 8.68782 7.90508 8.26677L7.74688 8.00132L8.0359 7.89758C8.20018 8.15998 8.36143 8.42848 8.52267 8.70003C8.68391 8.97158 8.80256 9.17906 8.9425 9.42315C9.45361 10.3141 9.95254 11.2386 10.4302 12.1966C11.1056 13.5514 11.711 14.903 12.2373 16.2181L11.9331 16.4286L11.7353 15.8733C11.4737 15.2366 11.1958 14.5969 10.9017 13.9541L10.8013 14.1128ZM17.5704 17.9206C16.5901 19.0704 15.6915 20.2877 14.8811 21.5637C14.5802 20.2648 14.2054 18.9843 13.7584 17.7284H13.8649C15.126 17.729 16.3654 17.3998 17.4609 16.7734C17.3547 15.876 17.187 14.987 16.9589 14.1128H16.9255L16.7429 13.8595L17.1171 13.5331C17.1719 13.7253 17.2175 13.9205 17.2662 14.1128C17.3544 14.4606 17.4335 14.8084 17.5035 15.1563C17.5187 15.2356 17.537 15.3119 17.5522 15.3912C17.5765 15.5194 17.5978 15.6506 17.6222 15.7787C17.6617 16.0167 17.7013 16.2547 17.7317 16.4927C17.7317 16.5293 17.7317 16.5659 17.7469 16.5995C17.7874 16.927 17.8199 17.2534 17.8442 17.5789L17.5704 17.9206ZM19.2863 15.678C19.119 15.9435 18.906 16.2364 18.6778 16.5506C18.6535 16.3645 18.6231 16.1754 18.5957 15.9862C19.1781 15.4904 19.68 14.9068 20.0834 14.2562C19.8457 14.746 19.5785 15.2208 19.2832 15.678H19.2863Z" fill="black"/>
</svg>
