<svg width="44" height="24" viewBox="0 0 44 24" fill="none" xmlns="http://www.w3.org/2000/svg">
<path d="M32.5438 10.4989C33.4449 10.4989 34.1754 9.76545 34.1754 8.86076C34.1754 7.95606 33.4449 7.22266 32.5438 7.22266C31.6426 7.22266 30.9121 7.95606 30.9121 8.86076C30.9121 9.76545 31.6426 10.4989 32.5438 10.4989Z" fill="black"/>
<path d="M37.888 19.5601V4.43759C37.888 3.09398 36.7983 2 35.4589 2H9.20781C7.86833 2 6.77865 3.09398 6.77865 4.43759V19.5601H4V22H40.6667V19.5601H37.888ZM29.4432 3.62429H33.1019V5.75014H29.4432V3.62429ZM20.5023 3.62429H24.1632V5.75014H20.5023V3.62429ZM16.0335 3.62429H19.6933V5.75014H16.0335V3.62429ZM16.0335 6.56229H19.6933V9.45427H16.0335V6.56229ZM11.5648 3.62429H15.2234V5.75014H11.5648V3.62429ZM11.5648 6.56229H15.2234V9.45427H11.5648V6.56229ZM10.7547 19.5601H8.39771V17.6747H10.7547V19.5601ZM10.7547 16.8625H8.39771V13.9705H10.7547V16.8625ZM10.7547 13.1573H8.39771V10.2676H10.7547V13.1573ZM10.7547 9.45427H8.39771V6.56229H10.7547V9.45427ZM10.7547 5.74899H8.39771V4.43759C8.39771 3.99011 8.76094 3.62429 9.20781 3.62429H10.7547V5.74899ZM24.1644 19.5601H20.5034V17.6747H24.1644V19.5601ZM28.6331 19.5601H24.9733V17.6747H28.6331V19.5601ZM33.1019 19.5601H29.4432V17.6747H33.1019V19.5601ZM36.269 19.5601H33.912V17.6747H36.269V19.5601ZM36.269 16.8625H33.912V13.9705H36.269V16.8625ZM36.269 9.45427H34.6579C34.5731 9.75797 34.4265 10.0317 34.2317 10.2676H36.269V13.1573H33.912V10.5828C33.6759 10.7714 33.4032 10.9129 33.1019 10.9934V11.5215C33.3643 11.7032 33.5659 11.9666 33.6496 12.2945C33.7378 12.6407 33.6863 13.0043 33.5029 13.3148C33.3184 13.6254 33.0251 13.8452 32.6756 13.9326L32.5209 13.9705H33.1019V16.8625H29.4432V14.7528L28.6331 14.9599V16.8625H24.9733V14.4836L24.1644 15.0565V16.8625H21.4258L19.6933 18.0508V19.5613H17.4945L15.7242 20.7772C15.4664 20.952 15.1684 21.0441 14.8591 21.0441C14.796 21.0441 14.7353 21.0418 14.6734 21.0326C14.2323 20.9785 13.8381 20.7381 13.5883 20.3723C13.4222 20.1295 13.3603 19.8488 13.35 19.5613H11.5648V17.6758H14.7995L16.0335 16.8292V16.0653L15.2234 16.1884V16.8625H11.5648V13.9705H12.3898C12.6224 13.6496 12.9776 13.4161 13.3993 13.3482L14.6494 13.1573H11.5648V10.2676H15.2234V13.0698L16.0335 12.9467V10.2687H19.6933V12.3877L19.9798 12.3451C19.9798 12.3451 20.1998 12.1875 20.5023 11.9747V10.2699H22.582L22.4491 9.45657H20.5023V6.56459H23.7748L24.9722 5.05073V3.62429H28.632V5.75014H27.7463C27.6993 5.87093 27.6534 5.99517 27.5698 6.1033L27.2066 6.56344H28.6331V8.16933C28.8336 8.31313 29.0193 8.48108 29.1648 8.68814C29.2874 8.86529 29.3756 9.05625 29.4432 9.25411V6.56229H33.1019V6.72909C33.4032 6.80962 33.6759 6.95111 33.912 7.13977V6.56229H36.269V9.45427ZM36.269 5.74899H33.912V3.62429H35.4589C35.9057 3.62429 36.269 3.99011 36.269 4.43759V5.74899Z" fill="black"/>
<path d="M25.0797 7.83018C25.2207 7.81293 25.3501 7.81523 25.4727 7.83133L27.1204 5.7469C27.3828 5.41215 27.3278 4.9244 26.9944 4.65982C26.661 4.39524 26.1786 4.45045 25.9127 4.7852L23.3105 8.07751C23.6085 8.09937 23.911 8.0476 24.2753 7.96938C24.5274 7.91761 24.7933 7.86354 25.0797 7.83018Z" fill="black"/>
<path d="M32.1579 11.8748L27.7396 13.0009L25.5098 11.9162C25.4583 11.7482 25.3884 11.5837 25.2818 11.4307C25.1626 11.2605 25.0114 11.1201 24.8464 11.0085L24.7043 10.1354C24.0237 9.97092 23.4508 9.67873 23.0199 9.3877L23.2525 10.8084C23.1173 10.8601 22.9856 10.9234 22.8618 11.0108L20.2 12.894L13.4877 13.9189C12.9618 14.0018 12.6009 14.4941 12.6811 15.0221C12.7475 15.4627 13.0993 15.7836 13.5175 15.8354C13.6012 15.8469 13.6883 15.8446 13.7788 15.8308L19.3876 14.9726C19.4117 15.0405 19.4323 15.1095 19.4644 15.1751L14.3127 18.7044C13.8739 19.0058 13.7616 19.6074 14.0618 20.048C14.2245 20.2861 14.4755 20.4299 14.7424 20.461C14.9647 20.4874 15.1985 20.438 15.4013 20.3011L21.5338 16.0908C21.7057 16.039 21.8752 15.9677 22.0299 15.8596L24.8613 13.8603C25.0068 13.7567 25.1248 13.6313 25.2279 13.4967L27.3214 14.5148C27.3993 14.5528 27.4807 14.5735 27.5655 14.585C27.6583 14.5965 27.7545 14.5919 27.8462 14.5666L32.5372 13.376C32.9497 13.2701 33.2007 12.8479 33.0952 12.4373C32.9898 12.0208 32.5704 11.7689 32.1579 11.8748Z" fill="black"/>
<path d="M25.9334 10.9695C26.4696 11.7356 27.5249 11.9197 28.2869 11.3825C29.0512 10.8429 29.2334 9.78462 28.696 9.01849C28.1586 8.25235 27.1056 8.0683 26.3424 8.60781C26.2542 8.67108 26.1752 8.74125 26.103 8.81718C25.9334 8.52729 25.6378 8.25235 25.1347 8.31102C24.1321 8.42836 23.4206 8.82293 22.5039 8.35244C22.5039 8.35244 23.8193 9.73516 25.6458 9.76507C25.5896 10.1734 25.6767 10.6048 25.9334 10.9695Z" fill="black"/>
</svg>
