<svg width="24" height="24" viewBox="0 0 24 24" fill="none" xmlns="http://www.w3.org/2000/svg">
<path d="M2 4.00087C2 3.44811 2.45531 3 2.9918 3H21.0082C21.556 3 22 3.44463 22 4.00087V17.9991C22 18.5519 21.5447 19 21.0082 19H2.9918C2.44405 19 2 18.5554 2 17.9991V4.00087ZM4 5V17H20V5H4ZM5 20H19V22H5V20Z" fill="black"/>
<path d="M9.12402 12.7998H8.27442L7.16562 9.3726H7.93842L8.70162 11.7822H8.71122L9.48402 9.3726H10.2616L9.12402 12.7998ZM11.1975 11.475H12.0855L11.6535 10.2174H11.6439L11.1975 11.475ZM11.2695 9.3726H12.0423L13.3239 12.7998H12.5415L12.2823 12.0366H11.0007L10.7319 12.7998H9.97354L11.2695 9.3726ZM14.3731 10.923H15.1987C15.3715 10.923 15.5011 10.8846 15.5875 10.8078C15.6739 10.731 15.7171 10.6062 15.7171 10.4334C15.7171 10.267 15.6739 10.147 15.5875 10.0734C15.5011 9.9966 15.3715 9.9582 15.1987 9.9582H14.3731V10.923ZM13.6195 9.3726H15.4675C15.6211 9.3726 15.7587 9.3982 15.8803 9.4494C16.0051 9.4974 16.1107 9.5646 16.1971 9.651C16.2867 9.7374 16.3539 9.8382 16.3987 9.9534C16.4467 10.0654 16.4707 10.187 16.4707 10.3182C16.4707 10.5198 16.4275 10.6942 16.3411 10.8414C16.2579 10.9886 16.1203 11.1006 15.9283 11.1774V11.187C16.0211 11.2126 16.0979 11.2526 16.1587 11.307C16.2195 11.3582 16.2691 11.4206 16.3075 11.4942C16.3459 11.5646 16.3731 11.643 16.3891 11.7294C16.4083 11.8158 16.4211 11.9022 16.4275 11.9886C16.4307 12.043 16.4339 12.107 16.4371 12.1806C16.4403 12.2542 16.4451 12.3294 16.4515 12.4062C16.4611 12.483 16.4739 12.5566 16.4899 12.627C16.5091 12.6942 16.5363 12.7518 16.5715 12.7998H15.8179C15.7763 12.691 15.7507 12.5614 15.7411 12.411C15.7315 12.2606 15.7171 12.1166 15.6979 11.979C15.6723 11.7998 15.6179 11.6686 15.5347 11.5854C15.4515 11.5022 15.3155 11.4606 15.1267 11.4606H14.3731V12.7998H13.6195V9.3726Z" fill="black"/>
</svg>
