<svg width="24" height="24" viewBox="0 0 24 24" fill="none" xmlns="http://www.w3.org/2000/svg">
<path d="M9.68244 16.9866C10.2354 16.9868 10.776 16.823 11.2358 16.5159C11.6956 16.2088 12.0541 15.7723 12.2658 15.2614C12.4775 14.7506 12.533 14.1885 12.4252 13.6462C12.3174 13.1038 12.0512 12.6056 11.6603 12.2146C11.2694 11.8236 10.7712 11.5572 10.2289 11.4493C9.68663 11.3414 9.1245 11.3967 8.61363 11.6082C8.10276 11.8198 7.6661 12.1781 7.35889 12.6379C7.05167 13.0976 6.8877 13.6381 6.8877 14.1911C6.88834 14.9322 7.18297 15.6427 7.70692 16.1668C8.23087 16.6909 8.94135 16.9858 9.68244 16.9866ZM9.68244 12.6167C9.99404 12.6166 10.2987 12.7088 10.5578 12.8819C10.817 13.0549 11.019 13.3009 11.1383 13.5887C11.2577 13.8766 11.2889 14.1934 11.2282 14.499C11.1674 14.8046 11.0174 15.0853 10.797 15.3057C10.5767 15.526 10.296 15.676 9.99035 15.7368C9.68473 15.7976 9.36795 15.7663 9.0801 15.647C8.79224 15.5276 8.54625 15.3256 8.37323 15.0665C8.20021 14.8073 8.10795 14.5027 8.10811 14.1911C8.10854 13.7737 8.27454 13.3735 8.56969 13.0783C8.86485 12.7832 9.26503 12.6172 9.68244 12.6167Z" fill="#001029"/>
<path d="M0.733875 16.4073C1.10639 16.7236 1.5795 16.8967 2.06819 16.8955C2.12596 16.8955 2.18454 16.8955 2.24312 16.8882L2.96235 16.8271C3.56719 18.3746 4.68697 19.6663 6.13298 20.4845C7.579 21.3028 9.26287 21.5976 10.9009 21.3192C12.5389 21.0409 14.0308 20.2064 15.1254 18.9565C16.22 17.7065 16.8503 16.1175 16.91 14.4571L21.9756 12.9454C22.1497 12.8927 22.3085 12.7986 22.4383 12.671C22.5681 12.5435 22.6651 12.3864 22.7208 12.2132L23.9461 8.42175C24 8.25435 24.0137 8.07664 23.9862 7.90296C23.9587 7.72927 23.8907 7.5645 23.7877 7.42194C23.6848 7.27939 23.5497 7.16305 23.3935 7.08233C23.2373 7.0016 23.0643 6.95876 22.8884 6.95726C22.7786 6.95726 21.0236 6.91739 18.7716 6.88973H18.7642C18.6041 6.88971 18.4503 6.95265 18.3362 7.06499C18.222 7.17732 18.1566 7.33003 18.154 7.49017C18.1513 7.81859 18.0183 8.13249 17.7842 8.36281C17.55 8.59313 17.234 8.72101 16.9056 8.71831C16.5771 8.71561 16.2632 8.58256 16.0329 8.34843C15.8026 8.11429 15.6747 7.79825 15.6774 7.46983C15.6772 7.30842 15.613 7.15366 15.499 7.03945C15.3849 6.92524 15.2303 6.86087 15.0688 6.86044C11.733 6.84905 9.59163 6.906 8.717 7.02316C7.23867 7.22998 5.85966 7.88628 4.76684 8.90313C3.67402 9.91998 2.92023 11.2482 2.60761 12.7078L1.90222 12.7672C1.38636 12.8127 0.905867 13.0484 0.554256 13.4286C0.202645 13.8088 0.00507459 14.3062 0 14.824C0 14.8647 1.9701e-08 14.9054 0.00976332 14.999C0.031369 15.2699 0.106491 15.5339 0.230783 15.7757C0.355075 16.0174 0.52607 16.2321 0.733875 16.4073ZM8.86996 8.23299C9.40531 8.16302 10.8096 8.08248 14.4407 8.08248H14.5286C14.6627 8.60864 14.9673 9.07559 15.3947 9.41042C15.8222 9.74525 16.3485 9.9291 16.8914 9.93329C17.4344 9.93747 17.9635 9.76174 18.396 9.43353C18.8286 9.10533 19.1403 8.64313 19.2825 8.11909C20.9984 8.14187 22.3425 8.16872 22.742 8.17767L21.5753 11.7925L16.1241 13.4197C15.9956 13.4581 15.8833 13.5377 15.8044 13.6462C15.7256 13.7547 15.6847 13.8861 15.688 14.0202L15.6978 14.1894C15.6975 15.3438 15.365 16.4737 14.7398 17.4441C14.1146 18.4145 13.2232 19.1844 12.1722 19.6618C11.1212 20.1392 9.95491 20.3039 8.81278 20.1362C7.67065 19.9686 6.60095 19.4756 5.73149 18.7163C4.86202 17.9569 4.22956 16.9633 3.90968 15.8541C3.5898 14.745 3.59602 13.5672 3.9276 12.4614C4.25918 11.3557 4.90209 10.3688 5.77953 9.61872C6.65697 8.86861 7.73182 8.38697 8.87565 8.23137L8.86996 8.23299ZM2.0031 13.9828L2.46442 13.9437C2.44401 14.5109 2.48988 15.0786 2.60111 15.6352L2.14142 15.6743C1.9174 15.6904 1.69583 15.6193 1.52307 15.4757C1.36236 15.3431 1.25726 15.1549 1.22855 14.9485C1.22822 14.9069 1.2255 14.8653 1.22041 14.824C1.22309 14.6116 1.30471 14.4079 1.44939 14.2523C1.59408 14.0968 1.79146 14.0007 2.0031 13.9828Z" fill="#001029"/>
<path d="M16.8441 4.37248C17.0059 4.37248 17.1611 4.30819 17.2756 4.19376C17.39 4.07932 17.4543 3.92411 17.4543 3.76228V2.61021C17.4543 2.44837 17.39 2.29316 17.2756 2.17873C17.1611 2.06429 17.0059 2 16.8441 2C16.6823 2 16.527 2.06429 16.4126 2.17873C16.2982 2.29316 16.2339 2.44837 16.2339 2.61021V3.76228C16.2339 3.92411 16.2982 4.07932 16.4126 4.19376C16.527 4.30819 16.6823 4.37248 16.8441 4.37248Z" fill="#001029"/>
<path d="M14.5627 5.42606C14.6194 5.48274 14.6867 5.52771 14.7607 5.55838C14.8348 5.58906 14.9142 5.60485 14.9943 5.60485C15.0745 5.60485 15.1539 5.58906 15.2279 5.55838C15.302 5.52771 15.3693 5.48274 15.4259 5.42606C15.4826 5.36938 15.5276 5.30209 15.5583 5.22804C15.5889 5.15398 15.6047 5.0746 15.6047 4.99444C15.6047 4.91429 15.5889 4.83491 15.5583 4.76085C15.5276 4.6868 15.4826 4.61951 15.4259 4.56283L14.6123 3.74922C14.5557 3.69254 14.4884 3.64757 14.4143 3.6169C14.3402 3.58622 14.2609 3.57043 14.1807 3.57043C14.1006 3.57043 14.0212 3.58622 13.9471 3.6169C13.8731 3.64757 13.8058 3.69254 13.7491 3.74922C13.6924 3.8059 13.6475 3.87319 13.6168 3.94725C13.5861 4.0213 13.5703 4.10068 13.5703 4.18084C13.5703 4.261 13.5861 4.34037 13.6168 4.41443C13.6475 4.48848 13.6924 4.55577 13.7491 4.61246L14.5627 5.42606Z" fill="#001029"/>
<path d="M18.693 5.60914C18.7731 5.60915 18.8525 5.59335 18.9264 5.56264C19.0004 5.53192 19.0677 5.48689 19.1242 5.43014L19.9378 4.61653C19.9948 4.56012 20.0401 4.49303 20.0712 4.4191C20.1023 4.34517 20.1185 4.26584 20.1189 4.18564C20.1193 4.10544 20.104 4.02595 20.0736 3.9517C20.0433 3.87745 19.9987 3.80989 19.9423 3.75289C19.8859 3.69589 19.8188 3.65056 19.7449 3.61948C19.6709 3.58841 19.5916 3.5722 19.5114 3.57179C19.4312 3.57137 19.3517 3.58675 19.2775 3.61706C19.2032 3.64737 19.1356 3.692 19.0786 3.74841L18.265 4.56202C18.1799 4.64747 18.122 4.75619 18.0986 4.8745C18.0751 4.9928 18.0872 5.11539 18.1333 5.22684C18.1794 5.33828 18.2575 5.43358 18.3577 5.50074C18.4578 5.56791 18.5756 5.60392 18.6962 5.60425L18.693 5.60914Z" fill="#001029"/>
</svg>
