<svg width="24" height="16" viewBox="0 0 24 16" fill="none" xmlns="http://www.w3.org/2000/svg">
<path fill-rule="evenodd" clip-rule="evenodd" d="M0.00122519 5.13482V10.8662H2.75069C2.75727 10.8662 2.76384 10.8629 2.76822 10.8584C2.77261 10.8539 2.77589 10.8471 2.77589 10.8404V5.16189C2.77589 5.15403 2.7737 5.14729 2.76932 5.14392L2.76822 5.1428C2.76384 5.13831 2.75727 5.13494 2.75069 5.13494L0.00122519 5.13482ZM21.2231 6.00635V10.8401C21.2231 10.8469 21.2264 10.8536 21.2308 10.8581C21.2352 10.8626 21.2418 10.866 21.2483 10.866H23.9978L23.9989 5.13455H21.2494C21.2428 5.13455 21.2363 5.13792 21.2319 5.14241H21.2297C21.2264 5.14578 21.2231 5.15252 21.2231 5.16038V6.00635ZM19.724 6.89473C19.4478 7.17663 19.2769 7.56861 19.2769 7.99989C19.2769 8.24473 19.3317 8.47723 19.4292 8.68275C19.5037 8.83999 19.6034 8.98263 19.7229 9.10506H19.7251C19.9048 9.28925 20.1305 9.42852 20.3826 9.50264L20.3815 6.4972C20.2522 6.53427 20.1306 6.5893 20.0177 6.65893C19.9103 6.7252 19.8117 6.80488 19.724 6.89473ZM12.4203 3.95226V0.00117248H22.9392C23.2307 0.00117248 23.4959 0.122468 23.6866 0.319025L23.6888 0.320148C23.8794 0.515571 23.9989 0.787366 23.9989 1.08613V4.27241H21.2494C21.0105 4.27241 20.7936 4.37237 20.6369 4.53298C20.4802 4.69583 20.3826 4.91819 20.3826 5.1608V5.61229C19.8972 5.70214 19.4632 5.94248 19.1301 6.28391C18.7016 6.72304 18.4375 7.32953 18.4375 7.9989C18.4375 8.66715 18.7027 9.27365 19.1312 9.7139C19.4643 10.0576 19.8983 10.2979 20.3837 10.3866V10.8392C20.3837 11.0841 20.4813 11.3065 20.638 11.4671C20.7947 11.6277 21.0127 11.7276 21.2505 11.7276H24V14.9139C24 15.2138 23.8816 15.4845 23.6899 15.6799L23.6877 15.6821C23.497 15.8776 23.2318 15.9989 22.9403 15.9989L12.4202 16V12.0478C13.3484 11.9478 14.1823 11.5199 14.8081 10.8786C15.5269 10.1418 15.9708 9.12539 15.9708 8.00111C15.9708 6.87682 15.5259 5.85932 14.8081 5.12362C14.1823 4.48119 13.3485 4.05332 12.4203 3.95226ZM9.78698 5.7324C9.22044 6.31305 8.86977 7.11497 8.86977 7.99998C8.86977 8.88611 9.22044 9.68803 9.78698 10.2687C10.3535 10.8493 11.136 11.2087 11.9995 11.2087C12.8641 11.2087 13.6465 10.8493 14.212 10.2687C14.7785 9.68803 15.1292 8.88611 15.1292 7.99998C15.1292 7.11385 14.7796 6.31193 14.212 5.7324C13.6454 5.15176 12.863 4.79236 11.9995 4.79236C11.1349 4.79236 10.3524 5.15176 9.78698 5.7324ZM11.3858 7.99998C11.3858 8.34701 11.6609 8.63005 11.9995 8.63005C12.3392 8.63005 12.6142 8.34702 12.6142 7.99998C12.6142 7.65294 12.3381 7.37103 11.9995 7.37103C11.6609 7.37103 11.3858 7.65294 11.3858 7.99998ZM4.56965 8.68284C4.66718 8.47731 4.72197 8.24483 4.72197 7.99998C4.72197 7.5687 4.55102 7.17785 4.27486 6.89481C4.18719 6.80496 4.08856 6.72634 3.98116 6.66008C3.86829 6.59045 3.74665 6.53541 3.61734 6.49835V9.50264C3.86938 9.42851 4.09402 9.28924 4.27486 9.10506H4.27705C4.3954 8.98264 4.49512 8.84121 4.56965 8.68284ZM4.86991 6.28499C4.53568 5.94244 4.10172 5.7021 3.61737 5.61337V5.16188C3.61737 4.91816 3.51984 4.69578 3.36204 4.53517C3.20534 4.37345 2.98837 4.27349 2.74947 4.27349L0.00109611 4.27236V1.08608C0.00109611 0.787317 0.119448 0.515525 0.311227 0.320098L0.312323 0.317852C0.503 0.122428 0.768192 0 1.0597 0H11.5786V3.95224C10.6505 4.05332 9.81653 4.48009 9.19189 5.1214C8.47412 5.85817 8.02922 6.87573 8.02922 7.99889C8.02922 9.12315 8.47412 10.1407 9.19189 10.8764C9.81763 11.5177 10.6505 11.9456 11.5786 12.0456V15.9978L1.0597 15.9989C0.768192 15.9989 0.503003 15.8776 0.312323 15.6822L0.310131 15.6811C0.119454 15.4856 0 15.2138 0 14.9151L0.00109611 11.7276H2.75056C2.98945 11.7276 3.20643 11.6277 3.36314 11.4671C3.51984 11.3065 3.61737 11.083 3.61737 10.8392V10.3866C4.10174 10.2979 4.53567 10.0576 4.8699 9.71502C5.29727 9.27477 5.56358 8.66828 5.56358 8.00003C5.56358 7.33066 5.29839 6.72411 4.86991 6.28499Z" fill="#D3DCE6"/>
</svg>
