<svg width="347" height="294" viewBox="0 0 347 294" fill="none" xmlns="http://www.w3.org/2000/svg">
<path d="M259.512 76.2222H211.884V124.156H259.512V76.2222Z" fill="#99C3FF"/>
<path d="M259.521 27.6942V8.79419C255.222 9.37214 251.058 10.7003 247.218 12.7182C238.218 17.6502 229.047 23.1492 219.489 27.6942H259.521Z" fill="#99C3FF"/>
<path d="M311.64 33.6882H265.506V70.2372H311.64V33.6882Z" fill="#99C3FF"/>
<path d="M311.64 76.2222H265.506V124.156H311.64V76.2222Z" fill="#99C3FF"/>
<path d="M259.512 33.6882H211.884V70.2372H259.512V33.6882Z" fill="#99C3FF"/>
<path d="M265.506 27.6941H311.64V22.6361C296.79 12.1421 279.6 7.70513 265.506 8.23613V27.6941Z" fill="#99C3FF"/>
<path d="M326.922 197.245C326.922 197.245 355.677 132.544 343.698 73.2252C339.585 52.8672 329.748 37.7922 317.598 27.3252V130.15H205.593V124.156H205.89V76.2222H205.593V70.2372H205.89V33.6882H205.593V33.3372C198.352 35.8418 190.754 37.1608 183.093 37.2432C159.693 37.2432 144.744 19.8732 97.413 3.69118C50.082 -12.4908 8.14196 27.0912 0.950964 72.5952C-6.24004 118.099 29.751 163.099 28.518 190.063C27.285 217.027 18.789 249.517 18.789 249.517H332.313C332.313 249.517 320.928 228.403 326.922 197.245ZM125.007 91.8372H62.097V15.7152H125.007V91.8372ZM176.802 98.4252H135.195V48.0612H176.802V98.4252Z" fill="#99C3FF"/>
<path d="M119.562 22.3032H67.5508V85.2132H119.562V22.3032Z" fill="#99C3FF"/>
<path d="M173.202 52.4261H138.804V94.0331H173.202V52.4261Z" fill="#99C3FF"/>
<g opacity="0.7">
<path d="M259.512 76.2222H211.884V124.156H259.512V76.2222Z" fill="white"/>
<path d="M259.521 27.6942V8.79419C255.222 9.37214 251.058 10.7003 247.218 12.7182C238.218 17.6502 229.047 23.1492 219.489 27.6942H259.521Z" fill="white"/>
<path d="M311.64 33.6882H265.506V70.2372H311.64V33.6882Z" fill="white"/>
<path d="M311.64 76.2222H265.506V124.156H311.64V76.2222Z" fill="white"/>
<path d="M259.512 33.6882H211.884V70.2372H259.512V33.6882Z" fill="white"/>
<path d="M265.506 27.6941H311.64V22.6361C296.79 12.1421 279.6 7.70513 265.506 8.23613V27.6941Z" fill="white"/>
<path d="M326.922 197.245C326.922 197.245 355.677 132.544 343.698 73.2252C339.585 52.8672 329.748 37.7922 317.598 27.3252V130.15H205.593V124.156H205.89V76.2222H205.593V70.2372H205.89V33.6882H205.593V33.3372C198.352 35.8418 190.754 37.1608 183.093 37.2432C159.693 37.2432 144.744 19.8732 97.413 3.69118C50.082 -12.4908 8.14196 27.0912 0.950964 72.5952C-6.24004 118.099 29.751 163.099 28.518 190.063C27.285 217.027 18.789 249.517 18.789 249.517H332.313C332.313 249.517 320.928 228.403 326.922 197.245ZM125.007 91.8372H62.097V15.7152H125.007V91.8372ZM176.802 98.4252H135.195V48.0612H176.802V98.4252Z" fill="white"/>
<path d="M119.562 22.3032H67.5508V85.2132H119.562V22.3032Z" fill="white"/>
<path d="M173.202 52.4261H138.804V94.0331H173.202V52.4261Z" fill="white"/>
</g>
<path d="M191.814 262.153C191.814 262.153 188.088 267.985 186.891 271.27C185.694 274.555 185.991 278.47 190.185 277.858C194.379 277.246 196.485 263.53 196.485 263.53L191.814 262.153Z" fill="#AD6359" stroke="#001029" stroke-linecap="round" stroke-linejoin="round"/>
<path d="M264.399 226.909C261.825 215.443 258.549 215.443 261.006 204.571C263.463 193.699 261.591 167.383 261.591 167.383C261.708 165.277 260.691 161.983 259.017 160.597C257.343 159.211 250.836 162.352 240.306 160.831C229.776 159.31 229.317 157.438 229.317 157.438C229.317 157.438 223.467 153.838 219.723 160.246C215.979 166.654 211.884 183.286 210.723 192.754C209.562 202.222 205.467 205.975 201.372 212.752C198.939 216.016 197.414 219.867 196.953 223.912C196.386 228.412 191.895 257.212 191.184 261.856C191.109 262.366 191.145 262.886 191.289 263.381C191.432 263.876 191.681 264.335 192.017 264.726C192.353 265.116 192.769 265.43 193.237 265.646C193.706 265.862 194.215 265.975 194.73 265.978C195.423 265.976 196.1 265.775 196.681 265.398C197.262 265.022 197.722 264.485 198.006 263.854L210.093 223.093C212.289 219.412 217.905 209.926 218.562 207.964C219.381 205.507 225.465 195.445 228.624 188.164C230.972 183.063 233.748 178.171 236.922 173.539L237.822 175.645C238.722 177.751 239.694 180.442 240.864 186.76C242.034 193.078 245.895 215.56 249.864 225.937C253.833 236.314 255.489 278.524 255.489 278.524L259.935 279.694C259.935 279.694 261.204 266.401 262.635 259.732C264.066 253.063 267.018 238.366 264.399 226.909Z" fill="#001029"/>
<mask id="mask0_2956_21639" style="mask-type:luminance" maskUnits="userSpaceOnUse" x="191" y="156" width="75" height="124">
<path d="M264.399 226.909C261.825 215.443 258.549 215.443 261.006 204.571C263.463 193.699 261.591 167.383 261.591 167.383C261.708 165.277 260.691 161.983 259.017 160.597C257.343 159.211 250.836 162.352 240.306 160.831C229.776 159.31 229.317 157.438 229.317 157.438C229.317 157.438 223.467 153.838 219.723 160.246C215.979 166.654 211.884 183.286 210.723 192.754C209.562 202.222 205.467 205.975 201.372 212.752C198.939 216.016 197.414 219.867 196.953 223.912C196.386 228.412 191.895 257.212 191.184 261.856C191.109 262.366 191.145 262.886 191.289 263.381C191.432 263.876 191.681 264.335 192.017 264.726C192.353 265.116 192.769 265.43 193.237 265.646C193.706 265.862 194.215 265.975 194.73 265.978C195.423 265.976 196.1 265.775 196.681 265.398C197.262 265.022 197.722 264.485 198.006 263.854L210.093 223.093C212.289 219.412 217.905 209.926 218.562 207.964C219.381 205.507 225.465 195.445 228.624 188.164C230.972 183.063 233.748 178.171 236.922 173.539L237.822 175.645C238.722 177.751 239.694 180.442 240.864 186.76C242.034 193.078 245.895 215.56 249.864 225.937C253.833 236.314 255.489 278.524 255.489 278.524L259.935 279.694C259.935 279.694 261.204 266.401 262.635 259.732C264.066 253.063 267.018 238.366 264.399 226.909Z" fill="white"/>
</mask>
<g mask="url(#mask0_2956_21639)">
<path opacity="0.15" d="M264.399 226.909C261.825 215.443 258.549 215.443 261.006 204.571C263.463 193.699 261.591 167.383 261.591 167.383C261.708 165.277 260.691 161.983 259.017 160.597C257.343 159.211 250.836 162.352 240.306 160.831C229.776 159.31 229.317 157.438 229.317 157.438C229.317 157.438 223.467 153.838 219.723 160.246C215.979 166.654 211.884 183.286 210.723 192.754C209.562 202.222 205.467 205.975 201.372 212.752C198.939 216.016 197.414 219.867 196.953 223.912C196.386 228.412 191.895 257.212 191.184 261.856C191.109 262.366 191.145 262.886 191.289 263.381C191.432 263.876 191.681 264.335 192.017 264.726C192.353 265.116 192.769 265.43 193.237 265.646C193.706 265.862 194.215 265.975 194.73 265.978C195.423 265.976 196.1 265.775 196.681 265.398C197.262 265.022 197.722 264.485 198.006 263.854L210.093 223.093C212.289 219.412 217.905 209.926 218.562 207.964C219.381 205.507 225.465 195.445 228.624 188.164C230.972 183.063 233.748 178.171 236.922 173.539L237.822 175.645C238.722 177.751 239.694 180.442 240.864 186.76C242.034 193.078 245.895 215.56 249.864 225.937C253.833 236.314 255.489 278.524 255.489 278.524L259.935 279.694C259.935 279.694 261.204 266.401 262.635 259.732C264.066 253.063 267.018 238.366 264.399 226.909Z" fill="#AD6359"/>
</g>
<path d="M264.399 226.909C261.825 215.443 258.549 215.443 261.006 204.571C263.463 193.699 261.591 167.383 261.591 167.383C261.708 165.277 260.691 161.983 259.017 160.597C257.343 159.211 250.836 162.352 240.306 160.831C229.776 159.31 229.317 157.438 229.317 157.438C229.317 157.438 223.467 153.838 219.723 160.246C215.979 166.654 211.884 183.286 210.723 192.754C209.562 202.222 205.467 205.975 201.372 212.752C198.939 216.016 197.414 219.867 196.953 223.912C196.386 228.412 191.895 257.212 191.184 261.856C191.109 262.366 191.145 262.886 191.289 263.381C191.432 263.876 191.681 264.335 192.017 264.726C192.353 265.116 192.769 265.43 193.237 265.646C193.706 265.862 194.215 265.975 194.73 265.978C195.423 265.976 196.1 265.775 196.681 265.398C197.262 265.022 197.722 264.485 198.006 263.854L210.093 223.093C212.289 219.412 217.905 209.926 218.562 207.964C219.381 205.507 225.465 195.445 228.624 188.164C230.972 183.063 233.748 178.171 236.922 173.539L237.822 175.645C238.722 177.751 239.694 180.442 240.864 186.76C242.034 193.078 245.895 215.56 249.864 225.937C253.833 236.314 255.489 278.524 255.489 278.524L259.935 279.694C259.935 279.694 261.204 266.401 262.635 259.732C264.066 253.063 267.018 238.366 264.399 226.909Z" stroke="#001029" stroke-linecap="round" stroke-linejoin="round"/>
<path d="M258.666 101.071C258.666 101.071 245.571 98.4968 238.218 99.6668C230.865 100.837 202.317 105.067 202.317 105.067L201.057 115.462C201.057 115.462 215.115 116.362 223.638 114.688C231.684 113.104 231.207 115.012 231.207 115.012C231.207 115.012 231.675 133.372 230.973 135.946C230.271 138.52 216.816 158.446 216.816 158.446C218.161 161.947 220.101 165.189 222.549 168.031C226.293 172.126 233.772 175.87 233.772 175.87L239.271 168.148V177.04C239.271 177.04 241.071 175.987 249.45 174.34C255.237 173.088 260.879 171.245 266.289 168.841L259.134 153.037C259.134 153.037 259.485 141.463 261.006 139.474C262.527 137.485 270.132 133.975 271.653 130.348C272.701 127.552 273.446 124.653 273.876 121.699C273.876 121.699 285.333 127.54 289.077 126.019C292.821 124.498 293.874 123.103 293.874 123.103C293.874 123.103 290.364 119.125 289.662 115.732C288.96 112.339 285.333 107.542 279.483 104.734C273.633 101.926 258.666 101.071 258.666 101.071Z" fill="#99C3FF" stroke="#001029" stroke-miterlimit="10"/>
<path d="M206.984 118.188C211.7 116.22 213.927 110.802 211.96 106.086C209.992 101.371 204.574 99.1432 199.858 101.111C195.143 103.079 192.915 108.497 194.883 113.212C196.851 117.928 202.269 120.156 206.984 118.188Z" fill="#AD6359" stroke="#001029" stroke-linecap="round" stroke-linejoin="round"/>
<path d="M248.262 101.539C246.793 103.56 245.583 105.759 244.662 108.082C243.504 110.712 242.527 113.418 241.737 116.182C241.737 116.182 248.523 112.672 250.629 112.582C252.735 112.492 261.384 122.482 261.384 122.482C261.384 122.482 266.649 107.389 265.947 103.411C265.245 99.4327 256.047 98.1547 252.969 99.4417C249.891 100.729 248.262 101.539 248.262 101.539Z" fill="#99C3FF" stroke="#001029" stroke-miterlimit="10"/>
<path d="M249.432 124.345C249.432 124.345 250.251 130.537 248.379 133.579C246.507 136.621 246.39 139.312 245.679 143.407C244.968 147.502 240.999 157.906 240.882 158.608" stroke="#001029" stroke-linecap="round" stroke-linejoin="round"/>
<path d="M236.319 154.72C236.319 154.72 244.023 155.998 252.582 150.436" stroke="#001029" stroke-linecap="round" stroke-linejoin="round"/>
<path d="M235.464 151.723C235.464 151.723 247.443 152.623 253.86 148.303" stroke="#001029" stroke-linecap="round" stroke-linejoin="round"/>
<path d="M238.12 136.648C238.12 136.648 242.683 141.445 253.42 139.105" stroke="#001029" stroke-linecap="round" stroke-linejoin="round"/>
<path d="M238.218 141.562C238.218 141.562 247.578 143.083 253.311 140.509" stroke="#001029" stroke-linecap="round" stroke-linejoin="round"/>
<path d="M219.84 56.0977C219.84 56.0977 224.034 55.4587 224.817 56.5837C225.6 57.7087 226.509 62.4247 226.275 63.3337C226.041 64.2427 224.781 64.0987 223.575 63.0997C222.369 62.1007 221.307 58.7437 221.307 58.7437L219.021 57.9067C219.021 57.9067 217.248 56.7997 219.84 56.0977Z" fill="#AD6359" stroke="#001029" stroke-linecap="round" stroke-linejoin="round"/>
<path d="M218.274 46.8367C218.274 46.8367 218.328 45.3697 215.205 45.6307C212.28 45.8737 212.397 47.1877 212.397 47.1877C212.366 47.278 212.366 47.3764 212.397 47.4667C212.45 47.6629 212.542 47.8466 212.667 48.0067C212.853 48.1812 213.014 48.3812 213.144 48.6007C213.351 49.0957 212.595 49.3387 212.622 49.8607C212.631 50.0206 212.687 50.1742 212.784 50.3017C213.017 50.6012 213.149 50.9666 213.162 51.3457L213.099 54.1627C213.037 56.665 212.666 59.15 211.992 61.5607L211.326 63.9457C210.6 66.5198 210.296 69.1944 210.426 71.8657L210.795 79.5427C210.825 80.1812 210.981 80.8075 211.253 81.3857C211.525 81.9639 211.909 82.4828 212.382 82.9125C212.856 83.3422 213.409 83.6743 214.011 83.8899C214.612 84.1054 215.251 84.2002 215.889 84.1687L217.086 84.1057H217.194L218.4 84.0427C219.039 84.0127 219.665 83.8571 220.243 83.5847C220.821 83.3123 221.34 82.9285 221.77 82.4554C222.199 81.9822 222.532 81.4289 222.747 80.8272C222.963 80.2254 223.058 79.5871 223.026 78.9487L222.657 71.2807C222.53 68.6082 221.974 65.9734 221.01 63.4777L220.11 61.1647C219.211 58.831 218.606 56.3942 218.31 53.9107L217.977 51.1117C217.955 50.7343 218.053 50.3596 218.256 50.0407C218.338 49.9052 218.378 49.7489 218.373 49.5907C218.373 49.1767 218.04 49.0777 217.833 48.7987C217.626 48.5197 217.653 48.1867 217.932 47.8987C218.134 47.7164 218.283 47.4833 218.364 47.2237C218.385 47.1571 218.388 47.0859 218.373 47.0178C218.357 46.9496 218.323 46.8871 218.274 46.8367Z" fill="#001029" stroke="#001029" stroke-linecap="round" stroke-linejoin="round"/>
<path d="M221.64 66.1147C221.64 66.1147 218.13 64.8367 215.736 66.2767L216.06 75.8437C216.06 75.8437 220.362 74.7277 222.441 75.8437L221.64 66.1147Z" fill="#99C3FF" stroke="#001029" stroke-miterlimit="10"/>
<path d="M208.834 54.3427C208.834 54.3427 219.301 54.0727 219.634 55.3147C219.967 56.5567 221.614 61.3177 221.515 62.3167C221.416 63.3157 221.434 63.7927 221.434 63.7927C220.915 63.7165 220.401 63.6114 219.895 63.4777C218.995 63.2347 213.307 64.2967 213.307 64.2967C213.307 64.2967 218.176 64.2967 218.761 65.1157C219.346 65.9347 220.93 67.3207 219.823 67.7347C218.716 68.1487 216.915 66.8347 216.438 66.8347C215.961 66.8347 210.399 68.6977 210.399 68.6977C210.696 69.1744 210.854 69.7247 210.854 70.2862C210.854 70.8477 210.696 71.398 210.399 71.8747C209.983 72.5209 209.342 72.9893 208.599 73.1887C208.599 73.1887 209.032 100.441 208.807 105.463C208.582 110.485 208.618 113.752 204.901 115.237C201.184 116.722 197.746 113.437 195.667 109.729C193.588 106.021 195.135 102.367 196.449 99.5857C197.763 96.8047 203.848 70.7857 204.496 67.8697C205.144 64.9537 208.159 54.5227 208.834 54.3427Z" fill="#AD6359" stroke="#001029" stroke-linecap="round" stroke-linejoin="round"/>
<path d="M210.84 57.6817C212.955 57.2904 215.11 57.1574 217.257 57.2857C218.266 57.3921 219.259 57.6125 220.218 57.9427" stroke="#001029" stroke-linecap="round" stroke-linejoin="round"/>
<path d="M211.218 61.4887C211.218 61.4887 213.846 60.8317 215.79 60.4267C217.734 60.0217 221.46 61.6057 221.46 61.6057" stroke="#001029" stroke-linecap="round" stroke-linejoin="round"/>
<path d="M249.315 107.137C249.315 107.137 249.315 116.614 249.432 120.943C249.549 125.272 260.772 106.543 262.761 102.817C264.75 99.0907 258.432 103.051 255.741 104.68C253.725 105.796 251.562 106.623 249.315 107.137Z" fill="#AD6359" stroke="#001029" stroke-linecap="round" stroke-linejoin="round"/>
<path d="M249.432 83.1697C249.432 83.1697 245.688 82.2697 243.231 76.9777C240.774 71.6857 244.401 67.9777 252.474 65.8627C260.547 63.7477 272.589 64.3417 279.132 69.8407C285.675 75.3397 288.132 82.2337 286.386 95.8057C284.64 109.378 281.472 123.526 287.556 132.76C293.64 141.994 298.545 136.27 297.456 140.599C296.367 144.928 293.487 149.014 285.297 150.652C277.107 152.29 274.776 151.354 272.553 149.752C271.517 149.096 270.603 148.265 269.853 147.295C269.853 147.295 270.132 152.137 274.218 153.937C278.304 155.737 271.059 158.032 263.571 153.037C256.083 148.042 253.671 142.984 256.434 128.476C259.197 113.968 264.156 104.266 264.273 100.18C264.379 97.7877 263.927 95.4039 262.952 93.2169C261.978 91.03 260.507 89.1 258.657 87.5797C255.934 85.4649 252.788 83.9608 249.432 83.1697Z" fill="#001029" stroke="#001029" stroke-linecap="round" stroke-linejoin="round"/>
<path d="M281.517 112.159C281.829 113.576 282.067 115.009 282.228 116.452" stroke="#AD6359" stroke-linecap="round" stroke-linejoin="round"/>
<path d="M259.35 72.3517C259.35 72.3517 261.843 82.7467 268.089 87.3277C272.877 90.8377 277.908 99.4957 280.554 108.406" stroke="#AD6359" stroke-linecap="round" stroke-linejoin="round"/>
<path d="M268.504 111.871C268.504 111.871 260.458 127.828 263.509 138.502C264.584 142.061 266.837 145.149 269.899 147.259" stroke="#AD6359" stroke-linecap="round" stroke-linejoin="round"/>
<path d="M279.303 145.9C280.445 146.711 281.717 147.319 283.065 147.7" stroke="#AD6359" stroke-linecap="round" stroke-linejoin="round"/>
<path d="M275.577 101.467C275.361 108.652 274.242 115.782 272.247 122.689C269.835 131.131 272.445 139.348 277.071 144.028" stroke="#AD6359" stroke-linecap="round" stroke-linejoin="round"/>
<path d="M266.226 67.6987C267.137 67.7895 268.04 67.952 268.926 68.1847" stroke="#AD6359" stroke-linecap="round" stroke-linejoin="round"/>
<path d="M255.192 73.1797C255.192 73.1797 250.197 68.5987 253.941 68.1847C256.888 67.8016 259.853 67.5823 262.824 67.5277" stroke="#AD6359" stroke-linecap="round" stroke-linejoin="round"/>
<path d="M256.677 73.5847C256.677 73.5847 248.379 80.4877 247.326 83.8717C246.093 87.343 245.421 90.9888 245.337 94.6717C245.22 99.3517 248.145 106.714 249.081 108.469C250.017 110.224 250.953 110.341 252.825 109.522C254.697 108.703 261.006 106.012 263.229 103.096C264.319 101.734 265.298 100.286 266.154 98.7667C266.906 99.0876 267.75 99.122 268.526 98.8633C269.302 98.6046 269.957 98.0709 270.366 97.3627C272.004 94.7887 272.823 92.7997 270.132 92.7997C267.441 92.7997 265.686 95.4997 265.686 95.4997C265.686 95.4997 260.421 87.5437 258.549 81.9997C256.677 76.4557 256.677 73.5847 256.677 73.5847Z" fill="#AD6359" stroke="#001029" stroke-linecap="round" stroke-linejoin="round"/>
<path d="M251.538 88.9027C251.538 88.9027 251.538 89.8027 250.017 91.1257C248.496 92.4487 246.741 92.7637 247.317 93.6997C247.893 94.6357 250.476 95.2207 250.476 95.2207" stroke="#001029" stroke-linecap="round" stroke-linejoin="round"/>
<path d="M248.262 97.5607C248.706 98.2697 249.329 98.8488 250.069 99.2392C250.809 99.6296 251.638 99.8175 252.474 99.7837C255.507 99.7837 258.432 97.2097 258.432 97.2097" stroke="#001029" stroke-linecap="round" stroke-linejoin="round"/>
<path d="M249.783 99.1987C249.783 99.1987 250.017 102.943 251.421 103.06C252.825 103.177 255.273 99.4597 255.273 99.4597C253.442 99.7089 251.581 99.6204 249.783 99.1987Z" fill="#001029"/>
<path d="M255.858 89.2537C256.448 89.1466 257.056 89.2239 257.601 89.4752C258.145 89.7264 258.599 90.1393 258.9 90.6577" stroke="#001029" stroke-linecap="round" stroke-linejoin="round"/>
<path d="M250.485 87.9667C250.09 87.6253 249.58 87.4473 249.058 87.4691C248.536 87.4908 248.043 87.7106 247.677 88.0837" stroke="#001029" stroke-linecap="round" stroke-linejoin="round"/>
<path d="M248.262 84.5737C248.262 84.5737 250.134 82.5847 251.772 83.5207" stroke="#001029" stroke-linecap="round" stroke-linejoin="round"/>
<path d="M255.741 83.8718C255.741 83.8718 259.485 82.3508 260.772 87.2648" stroke="#001029" stroke-linecap="round" stroke-linejoin="round"/>
<path d="M292.705 109.603C292.705 109.603 288.727 109.837 287.305 113.113C285.883 116.389 285.199 123.175 289.06 125.974C292.921 128.773 294.208 127.261 297.709 121.771C301.21 116.281 297.142 109.252 292.705 109.603Z" fill="#AD6359" stroke="#001029" stroke-linecap="round" stroke-linejoin="round"/>
<path d="M306.034 98.4968C306.034 98.4968 302.173 103.06 300.418 104.221C298.663 105.382 293.875 105.274 291.418 110.773C288.961 116.272 291.418 121.771 293.875 123.058C296.332 124.345 298.663 123.526 302.29 120.016C305.917 116.506 307.555 110.305 309.427 107.614C311.299 104.923 317.149 100.486 317.149 100.486C317.149 100.486 310.714 95.3378 306.034 98.4968Z" fill="#AD6359" stroke="#001029" stroke-linecap="round" stroke-linejoin="round"/>
<path d="M306.619 94.1678C306.619 94.1678 303.46 94.8698 303.226 96.2738C302.992 97.6778 302.173 101.674 302.641 102.574C303.109 103.474 307.789 107.245 308.257 106.075C308.437 105.44 308.467 104.773 308.345 104.125C308.224 103.476 307.953 102.865 307.555 102.34C307.192 101.948 306.948 101.461 306.853 100.936L308.491 94.8518C308.261 94.5894 307.97 94.3892 307.642 94.2696C307.315 94.1501 306.963 94.115 306.619 94.1678Z" fill="#AD6359" stroke="#001029" stroke-linecap="round" stroke-linejoin="round"/>
<path d="M312.117 90.7747C312.117 90.7747 308.256 89.6047 307.437 90.8917C306.618 92.1787 305.097 99.0817 305.331 100.018C305.565 100.954 307.671 101.656 308.256 100.603C308.841 99.5497 311.883 91.5937 312.117 90.7747Z" fill="#AD6359" stroke="#001029" stroke-linecap="round" stroke-linejoin="round"/>
<path d="M319.947 95.8057C319.947 95.8057 323.547 97.4437 321.819 99.9007C320.091 102.358 317.148 104.221 315.276 104.338C313.404 104.455 313.17 103.636 313.17 103.636C313.17 103.636 319.947 98.0287 319.947 95.8057Z" fill="#AD6359" stroke="#001029" stroke-linecap="round" stroke-linejoin="round"/>
<path d="M312.117 90.7747C312.117 90.7747 307.905 100.837 308.139 101.656C308.373 102.475 310.596 102.826 311.298 102.124C313.169 99.2699 314.701 96.2071 315.861 92.9977C316.563 90.5407 314.223 89.4877 312.117 90.7747Z" fill="#AD6359" stroke="#001029" stroke-linecap="round" stroke-linejoin="round"/>
<path d="M315.861 92.9977C315.861 92.9977 311.649 100.486 311.298 102.124C310.947 103.762 312 103.636 313.872 103.024C315.744 102.412 319.479 98.4607 319.947 95.7697C320.415 93.0787 317.85 91.2427 315.861 92.9977Z" fill="#AD6359" stroke="#001029" stroke-linecap="round" stroke-linejoin="round"/>
<path d="M259.971 279.73C259.971 279.73 271.878 292.033 269.277 292.897C266.676 293.761 257.577 288.127 254.526 286.39C251.475 284.653 255.525 278.56 255.525 278.56L259.971 279.73Z" fill="#AD6359" stroke="#001029" stroke-linecap="round" stroke-linejoin="round"/>
<path d="M59.0186 149.284L58.6946 154.684C58.6946 154.684 58.0646 156.115 53.7806 160.552C49.4966 164.989 43.7906 169.552 40.9376 170.866L38.0846 172.126C36.7276 170.475 35.1844 168.986 33.4856 167.689C30.1556 164.989 28.5626 164.674 25.7096 166.582C22.8566 168.49 22.8566 175.78 25.7096 178.282C28.5626 180.784 29.2016 180.343 37.7606 179.074C46.3196 177.805 52.5116 174.16 59.0186 170.974C65.5256 167.788 68.2076 168.751 70.1156 163.522C72.0236 158.293 70.9076 148.618 68.2076 147.034C66.6795 146.159 64.8739 145.905 63.1638 146.324C61.4537 146.743 59.9698 147.802 59.0186 149.284Z" fill="#AD6359" stroke="#001029" stroke-miterlimit="10"/>
<path d="M18.4198 168.949C17.9968 169.624 24.1258 177.949 25.0798 179.416C26.0338 180.883 33.4858 179.893 34.5928 178.624C35.6998 177.355 33.4858 175.294 32.6938 175.294C31.9018 175.294 29.0398 168.994 27.4558 166.888C25.8718 164.782 25.3948 164.35 23.8558 164.827C22.713 165.098 21.6394 165.605 20.7034 166.315C19.7674 167.025 18.9897 167.922 18.4198 168.949Z" fill="#AD6359" stroke="#001029" stroke-miterlimit="10"/>
<path d="M20.3188 171.802C20.3188 171.802 26.0338 167.68 27.9328 167.527L20.3188 171.802Z" fill="#AD6359"/>
<path d="M20.3188 171.802C20.3188 171.802 26.0338 167.68 27.9328 167.527" stroke="#001029" stroke-linecap="round" stroke-linejoin="round"/>
<path d="M22.3799 175.132C22.3799 175.132 27.7799 171.172 29.9939 170.695L22.3799 175.132Z" fill="#AD6359"/>
<path d="M22.3799 175.132C22.3799 175.132 27.7799 171.172 29.9939 170.695" stroke="#001029" stroke-linecap="round" stroke-linejoin="round"/>
<path d="M25.395 180.037C25.395 180.037 29.202 174.808 32.694 175.285L25.395 180.037Z" fill="#AD6359"/>
<path d="M25.395 180.037C25.395 180.037 29.202 174.808 32.694 175.285" stroke="#001029" stroke-linecap="round" stroke-linejoin="round"/>
<path d="M29.3639 161.812C29.3639 161.812 26.5019 162.289 26.6639 163.873C26.8259 165.457 28.0949 169.741 29.0399 169.741C29.9849 169.741 31.4249 169.903 31.5779 167.527C31.7309 165.151 30.6329 161.497 29.3639 161.812Z" fill="#AD6359" stroke="#001029" stroke-miterlimit="10"/>
<path d="M116.475 113.986C116.475 113.986 120.903 106.156 120.786 99.2528C120.669 92.3498 119.589 87.5528 117.69 88.1918C115.791 88.8308 113.766 92.3588 113.406 100.09C113.2 104.738 114.182 109.363 116.259 113.527L116.475 113.986Z" fill="#AD6359" stroke="#001029" stroke-linecap="round" stroke-linejoin="round"/>
<path d="M38.418 264.259C38.571 264.736 45.456 268.507 45.456 268.507C45.456 268.507 85.515 232.858 87.261 230.482C88.4561 229.021 89.3714 227.352 89.961 225.559C90.438 224.137 93.93 188.776 93.93 188.776L98.79 185.617C98.79 185.617 114.702 208.117 116.79 214.777C118.878 221.437 126.411 274.474 126.411 274.474L134.331 274.024C134.331 274.024 135.978 215.569 132.81 201.772C129.642 187.975 111.21 162.172 111.21 162.172C111.21 162.172 105.018 168.04 91.41 171.532C83.5986 173.608 75.5431 174.622 67.461 174.547L72.177 224.137C72.177 224.137 65.04 230.005 61.233 235.711C57.426 241.417 38.418 264.259 38.418 264.259Z" fill="#001029"/>
<mask id="mask1_2956_21639" style="mask-type:luminance" maskUnits="userSpaceOnUse" x="38" y="162" width="97" height="113">
<path d="M38.418 264.259C38.571 264.736 45.456 268.507 45.456 268.507C45.456 268.507 85.515 232.858 87.261 230.482C88.4561 229.021 89.3714 227.352 89.961 225.559C90.438 224.137 93.93 188.776 93.93 188.776L98.79 185.617C98.79 185.617 114.702 208.117 116.79 214.777C118.878 221.437 126.411 274.474 126.411 274.474L134.331 274.024C134.331 274.024 135.978 215.569 132.81 201.772C129.642 187.975 111.21 162.172 111.21 162.172C111.21 162.172 105.018 168.04 91.41 171.532C83.5986 173.608 75.5431 174.622 67.461 174.547L72.177 224.137C72.177 224.137 65.04 230.005 61.233 235.711C57.426 241.417 38.418 264.259 38.418 264.259Z" fill="white"/>
</mask>
<g mask="url(#mask1_2956_21639)">
<path opacity="0.15" d="M38.418 264.259C38.571 264.736 45.456 268.507 45.456 268.507C45.456 268.507 85.515 232.858 87.261 230.482C88.4561 229.021 89.3714 227.352 89.961 225.559C90.438 224.137 93.93 188.776 93.93 188.776L98.79 185.617C98.79 185.617 114.702 208.117 116.79 214.777C118.878 221.437 126.411 274.474 126.411 274.474L134.331 274.024C134.331 274.024 135.978 215.569 132.81 201.772C129.642 187.975 111.21 162.172 111.21 162.172C111.21 162.172 105.018 168.04 91.41 171.532C83.5986 173.608 75.5431 174.622 67.461 174.547L72.177 224.137C72.177 224.137 65.04 230.005 61.233 235.711C57.426 241.417 38.418 264.259 38.418 264.259Z" fill="#AD6359"/>
</g>
<path d="M38.418 264.259C38.571 264.736 45.456 268.507 45.456 268.507C45.456 268.507 85.515 232.858 87.261 230.482C88.4561 229.021 89.3714 227.352 89.961 225.559C90.438 224.137 93.93 188.776 93.93 188.776L98.79 185.617C98.79 185.617 114.702 208.117 116.79 214.777C118.878 221.437 126.411 274.474 126.411 274.474L134.331 274.024C134.331 274.024 135.978 215.569 132.81 201.772C129.642 187.975 111.21 162.172 111.21 162.172C111.21 162.172 105.018 168.04 91.41 171.532C83.5986 173.608 75.5431 174.622 67.461 174.547L72.177 224.137C72.177 224.137 65.04 230.005 61.233 235.711C57.426 241.417 38.418 264.259 38.418 264.259Z" stroke="#001029" stroke-linecap="round" stroke-linejoin="round"/>
<path d="M76.0019 85.9418C76.0019 85.9418 69.9539 86.4728 67.6139 92.2418C65.2739 98.0108 67.9289 109.45 69.8459 116.668C71.7629 123.886 78.8459 161.074 79.8269 171.478C80.8079 181.882 81.1049 180.082 81.1049 180.082C81.1049 180.082 91.1939 183.799 100.545 179.983C109.896 176.167 115.413 167.554 115.413 167.554C115.413 167.554 113.289 161.812 110.742 152.569C108.195 143.326 98.0969 115.048 94.4879 104.437C90.8789 93.8258 84.0749 88.1828 82.0589 87.1208C80.0429 86.0588 76.0019 85.9418 76.0019 85.9418Z" fill="#001029" stroke="#001029" stroke-linecap="round" stroke-linejoin="round"/>
<path d="M100.014 134.812L93.5337 154.675" stroke="#AD6359" stroke-linecap="round" stroke-linejoin="round"/>
<path d="M100.545 142.03L93.1021 168.265" stroke="#AD6359" stroke-linecap="round" stroke-linejoin="round"/>
<path d="M72.1766 89.2358C72.1766 89.2358 68.9906 91.2608 69.5216 98.9018C70.0526 106.543 75.1556 123.445 79.2956 146.386C83.4356 169.327 83.8676 181.549 83.8676 185.797V190.891C80.6621 190.654 77.5102 189.938 74.5166 188.767C69.1166 186.751 63.1496 183.772 63.1496 183.772C63.1496 183.772 66.3356 165.826 66.5516 159.553C66.7676 153.28 66.3357 152.011 66.3357 152.011C63.4952 152.016 60.6573 151.839 57.8396 151.48C55.3956 150.977 52.9897 150.303 50.6396 149.464C50.6396 149.464 52.9706 121.564 52.9706 121.213C52.9706 120.862 50.6396 117.073 51.4856 114.841C52.3316 112.609 67.8386 94.0148 68.6936 92.8538C69.5486 91.6928 71.2226 89.2358 72.1766 89.2358Z" fill="#99C3FF" stroke="#001029" stroke-miterlimit="10"/>
<path d="M121.038 87.5348C119.496 87.373 117.938 87.5543 116.475 88.0658C114.243 88.9208 110.742 98.8658 110.841 101.566C110.94 104.266 116.583 104.329 119.841 104.329C123.099 104.329 123.981 104.545 124.935 102.205C125.889 99.8649 125.682 93.6009 124.512 90.6309C123.342 87.6608 121.038 87.5348 121.038 87.5348Z" fill="#AD6359" stroke="#001029" stroke-linecap="round" stroke-linejoin="round"/>
<path d="M87.2608 99.4328C87.2608 99.4328 88.5388 103.933 91.6168 111.655C94.6948 119.377 102.237 141.355 105.855 150.103C109.035 157.435 112.725 164.535 116.898 171.352C118.292 173.752 119.467 176.273 120.408 178.885C121.339 175.759 121.699 172.49 121.47 169.237C121.038 164.035 116.898 155.737 113.82 148.42C110.742 141.103 107.979 122.401 107.232 117.298C106.485 112.195 105.639 107.101 105.639 107.101C105.639 107.101 106.701 109.441 110.742 111.349C114.783 113.257 116.475 114.049 116.475 114.049C115.223 109.12 114.618 104.05 114.675 98.9648C114.796 94.8278 116.132 90.8179 118.518 87.4358C118.518 87.4358 104.82 88.9208 102.264 87.8588C99.7078 86.7968 99.4018 85.5188 95.6848 85.9418C91.9678 86.3648 84.1018 88.2818 83.3638 88.4978C82.6258 88.7138 87.2608 99.4328 87.2608 99.4328Z" fill="#99C3FF" stroke="#001029" stroke-miterlimit="10"/>
<path d="M63.906 125.623L56.625 121.771" stroke="#001029" stroke-linecap="round" stroke-linejoin="round"/>
<path d="M66.3178 152.011C66.3178 152.011 64.8328 130.879 62.9248 121.528" stroke="#001029" stroke-linecap="round" stroke-linejoin="round"/>
<path d="M105.639 107.083L100.644 96.4628" stroke="#001029" stroke-linecap="round" stroke-linejoin="round"/>
<path d="M103.092 101.134V91.6838" stroke="#001029" stroke-linecap="round" stroke-linejoin="round"/>
<path d="M70.3766 85.5368C70.3766 85.5368 65.5976 87.1298 63.8966 93.4028C62.1956 99.6758 64.7426 104.977 65.6966 108.379C66.6506 111.781 66.5516 114.859 66.8666 114.679C67.1816 114.499 70.9076 107.353 70.9076 107.353C70.9076 107.353 68.9906 99.1718 70.2686 95.0318C71.5466 90.8918 71.5466 88.2278 77.0636 88.2278C82.5806 88.2278 85.9916 96.0938 86.5226 97.5788C86.8156 98.417 87.1706 99.2323 87.5846 100.018C87.5846 100.018 89.1776 98.3258 90.7706 99.1718C92.3636 100.018 95.2706 103.312 95.2706 102.997C95.2706 102.682 96.3326 98.9558 90.1676 91.2068C84.0026 83.4578 79.3676 83.0258 76.4606 83.2418C74.4414 83.5104 72.5273 84.3014 70.9076 85.5368H70.3766Z" fill="#99C3FF" stroke="#001029" stroke-miterlimit="10"/>
<path d="M66.6597 82.0178C68.6105 84.7798 70.1477 87.8117 71.2227 91.0178C72.9237 96.2198 76.2177 104.518 79.9347 107.056C83.6517 109.594 85.4607 105.886 85.4607 98.9558C85.4607 92.0258 81.6357 87.2558 81.4197 83.6558L81.2127 80.0558C81.2127 80.0558 72.1767 84.0338 66.6597 82.0178Z" fill="#AD6359" stroke="#001029" stroke-linecap="round" stroke-linejoin="round"/>
<path d="M61.9799 49.7887C61.9799 49.7887 55.2659 51.1477 54.0959 59.3197C52.9259 67.4917 57.8939 76.1407 57.8939 76.1407C57.8939 76.1407 55.2659 76.8247 56.5349 80.6407C57.8039 84.4567 61.2959 86.1847 62.8349 85.6987C63.7851 85.3921 64.6281 84.8208 65.2649 84.0518C65.2649 84.0518 70.9079 87.8407 76.0649 87.2557C81.2219 86.6707 86.8649 83.5657 87.0539 75.4927C87.2429 67.4197 84.7229 59.4367 78.1079 53.2177C71.4929 46.9987 62.9519 49.1047 61.9799 49.7887Z" fill="#AD6359" stroke="#001029" stroke-linecap="round" stroke-linejoin="round"/>
<path d="M72.4827 56.9799C72.4827 56.9799 77.4417 60.0939 78.7107 60.7779C79.9797 61.4619 79.2867 64.2789 77.1537 65.5389C75.0207 66.7989 71.7987 67.4829 71.5107 66.5109" stroke="#001029" stroke-linecap="round" stroke-linejoin="round"/>
<path d="M63.6177 63.2078C63.7077 62.8208 63.5187 60.3907 66.3177 60.2917" stroke="#001029" stroke-linecap="round" stroke-linejoin="round"/>
<path d="M74.1387 56.5928C74.1387 56.5928 74.2287 54.6489 76.8387 55.3329" stroke="#001029" stroke-linecap="round" stroke-linejoin="round"/>
<path d="M61.197 61.5518C61.197 61.5518 60.5219 56.4937 65.5799 56.5927" stroke="#001029" stroke-width="2" stroke-linecap="round" stroke-linejoin="round"/>
<path d="M70.9258 54.8468C70.9258 54.8468 71.1238 51.0488 75.1108 52.0208" stroke="#001029" stroke-width="2" stroke-linecap="round" stroke-linejoin="round"/>
<path d="M67.3259 70.4078L65.6699 73.5128" stroke="#001029" stroke-linecap="round" stroke-linejoin="round"/>
<path d="M66.7407 72.0368C67.7215 72.6431 68.8304 73.0117 69.9789 73.1132C71.1274 73.2148 72.2838 73.0465 73.3557 72.6218C77.3427 71.1638 81.8157 66.5918 81.8157 66.5918" stroke="#001029" stroke-linecap="round" stroke-linejoin="round"/>
<path d="M67.2178 72.5408C67.2178 72.5408 67.4158 77.3108 71.8888 78.8408C76.3618 80.3708 79.8628 79.4258 79.2778 77.5718C78.6928 75.7178 77.4778 70.4708 77.4778 70.4708C75.8431 71.6172 73.9895 72.4138 72.0328 72.8108C68.8828 73.4228 67.2178 72.5408 67.2178 72.5408Z" fill="#001029" stroke="#001029" stroke-linecap="round" stroke-linejoin="round"/>
<path d="M70.9707 78.4628C71.2621 78.6163 71.5626 78.7515 71.8707 78.8678C74.5707 79.7678 76.8837 79.8218 78.1707 79.2908C77.8518 78.7622 77.4276 78.3048 76.9244 77.9471C76.4212 77.5895 75.8498 77.3392 75.2457 77.2118C72.6177 76.3838 71.4657 77.5538 70.9707 78.4628Z" fill="#AD6359" stroke="#001029" stroke-linecap="round" stroke-linejoin="round"/>
<path d="M57.8936 76.1408C57.8936 76.1408 60.7106 78.1838 60.9086 76.9238C61.1066 75.6638 60.2246 72.6398 60.2246 70.8938C60.2246 69.1478 62.0786 67.4828 60.6116 65.4398C59.1446 63.3968 57.5966 64.3778 57.0116 63.0098C56.4266 61.6418 54.8696 59.7068 58.6586 55.4228C62.4476 51.1388 65.2736 51.3368 67.9016 50.8508C70.5296 50.3648 72.2756 50.0768 70.9166 48.0338C69.5576 45.9908 65.9576 44.2448 61.1876 46.6748C56.4176 49.1048 58.7576 49.4918 58.0826 50.6618C57.4076 51.8318 54.0866 52.6058 52.8266 58.9238C51.5666 65.2418 56.8226 74.8808 57.8936 76.1408Z" fill="#001029" stroke="#001029" stroke-linecap="round" stroke-linejoin="round"/>
<path d="M119.418 41.6708C119.418 41.6708 116.43 41.7968 116.106 43.0388C115.782 44.2808 115.503 49.7078 115.836 50.4998C115.99 50.7706 116.223 50.9877 116.504 51.1217C116.785 51.2557 117.1 51.3001 117.408 51.2491C117.715 51.1981 117.999 51.054 118.222 50.8363C118.444 50.6186 118.595 50.3378 118.653 50.0318C119.12 48.3397 119.466 46.6163 119.688 44.8748C119.688 44.8748 122.019 45.2978 121.992 44.1008C121.965 42.9038 121.821 40.5368 119.418 41.6708Z" fill="#AD6359" stroke="#001029" stroke-linecap="round" stroke-linejoin="round"/>
<path d="M120.084 100.774C120.084 100.774 116.79 98.3978 117.573 89.1998C118.356 80.0018 121.281 57.9158 121.083 55.4768C120.961 54.1634 120.94 52.8425 121.02 51.5258L125.394 51.4088C125.394 51.4088 127.518 71.0558 128.409 81.6488C129.3 92.2418 128.148 95.9138 126.501 100.72C124.854 105.526 121.326 102.97 121.326 102.97" fill="#AD6359"/>
<path d="M120.084 100.774C120.084 100.774 116.79 98.3978 117.573 89.1998C118.356 80.0018 121.281 57.9158 121.083 55.4768C120.961 54.1634 120.94 52.8425 121.02 51.5258L125.394 51.4088C125.394 51.4088 127.518 71.0558 128.409 81.6488C129.3 92.2418 128.148 95.9138 126.501 100.72C124.854 105.526 121.326 102.97 121.326 102.97" stroke="#001029" stroke-linecap="round" stroke-linejoin="round"/>
<path d="M128.697 50.4368L127.653 48.2408C126.592 46.0322 125.818 43.6974 125.349 41.2928L124.827 38.6558C124.739 38.2973 124.787 37.919 124.962 37.5938C125.061 37.4356 125.102 37.248 125.079 37.0628C125.079 36.6578 124.719 36.5858 124.494 36.3248C124.269 36.0638 124.278 35.7398 124.494 35.4248C124.673 35.2287 124.8 34.9902 124.863 34.7318C124.872 34.6738 124.868 34.6145 124.851 34.5584C124.834 34.5023 124.804 34.4508 124.764 34.4078C124.702 34.3647 124.631 34.3358 124.556 34.3234C124.481 34.3109 124.405 34.3152 124.332 34.3358L119.508 34.9388C119.328 34.9388 119.112 35.0108 119.049 35.1818C119.013 35.2714 119.013 35.3712 119.049 35.4608C119.109 35.649 119.21 35.8213 119.346 35.9648C119.542 36.1197 119.714 36.3015 119.859 36.5048C120.093 36.9728 119.382 37.2698 119.445 37.7828C119.47 37.9673 119.555 38.1383 119.688 38.2688C119.936 38.5425 120.074 38.8984 120.075 39.2678L120.219 41.9678C120.351 44.416 120.176 46.8712 119.697 49.2758L119.211 51.6518C118.697 54.2235 118.6 56.8612 118.923 59.4638L119.931 67.5638C119.999 68.1046 120.172 68.6267 120.442 69.1003C120.712 69.5739 121.072 69.9897 121.503 70.324C121.933 70.6583 122.425 70.9046 122.951 71.0487C123.476 71.1928 124.025 71.2319 124.566 71.1638L126.366 70.9388H126.474L128.274 70.7138C128.815 70.646 129.337 70.4722 129.81 70.2025C130.284 69.9329 130.7 69.5725 131.034 69.1421C131.368 68.7117 131.615 68.2196 131.759 67.694C131.903 67.1684 131.942 66.6195 131.874 66.0788L130.875 57.9788C130.56 55.3639 129.824 52.8172 128.697 50.4368Z" fill="#001029" stroke="#001029" stroke-linecap="round" stroke-linejoin="round"/>
<path d="M119.49 56.5478C122.321 56.895 125.194 56.6778 127.941 55.9088L129.219 66.7088C126.68 67.8998 123.78 68.0706 121.119 67.1858L119.49 56.5478Z" fill="#99C3FF" stroke="#001029" stroke-miterlimit="10"/>
<path d="M119.678 39.4965L126.01 38.7089C126.455 38.6535 126.905 38.7773 127.259 39.053C127.613 39.3287 127.843 39.7338 127.898 40.1791L127.921 40.3667C127.949 40.586 127.932 40.8085 127.874 41.0216C127.815 41.2347 127.715 41.4341 127.579 41.6085C127.443 41.7829 127.274 41.9288 127.082 42.0379C126.89 42.147 126.678 42.2173 126.459 42.2445L120.127 43.0321C119.681 43.0875 119.232 42.9637 118.878 42.688C118.524 42.4123 118.294 42.0072 118.239 41.5619L118.216 41.3744C118.16 40.9314 118.284 40.4847 118.558 40.1326C118.832 39.7804 119.235 39.5516 119.678 39.4965Z" fill="#AD6359" stroke="#001029" stroke-linecap="round" stroke-linejoin="round"/>
<path d="M121.175 42.9029L127.508 42.1153C127.953 42.0599 128.402 42.1837 128.756 42.4594C129.11 42.7352 129.34 43.1402 129.396 43.5856L129.419 43.7731C129.446 43.9924 129.43 44.215 129.371 44.428C129.312 44.6411 129.212 44.8405 129.077 45.0149C128.941 45.1893 128.772 45.3352 128.58 45.4443C128.388 45.5535 128.176 45.6237 127.956 45.651L121.624 46.4386C121.179 46.494 120.73 46.3702 120.376 46.0945C120.022 45.8187 119.792 45.4137 119.736 44.9683L119.71 44.754C119.682 44.5347 119.699 44.3121 119.757 44.0991C119.816 43.886 119.916 43.6866 120.052 43.5122C120.188 43.3378 120.357 43.1919 120.549 43.0828C120.741 42.9736 120.953 42.9034 121.172 42.8761L121.175 42.9029Z" fill="#AD6359" stroke="#001029" stroke-linecap="round" stroke-linejoin="round"/>
<path d="M129.156 48.3758C129.539 48.6313 129.839 48.993 130.02 49.4166C130.201 49.8403 130.254 50.3074 130.173 50.7608C129.885 52.3538 127.275 55.4408 126.069 54.3608C124.863 53.2808 126.303 52.4168 126.555 51.5438C126.807 50.6708 127.455 48.9158 127.455 48.9158C127.455 48.9158 128.22 47.6468 129.156 48.3758Z" fill="#AD6359" stroke="#001029" stroke-linecap="round" stroke-linejoin="round"/>
<path d="M121.713 46.1962L128.045 45.4086C128.491 45.3532 128.94 45.477 129.294 45.7527C129.648 46.0284 129.878 46.4335 129.933 46.8788L129.957 47.0664C130.012 47.5093 129.889 47.956 129.614 48.3082C129.34 48.6604 128.937 48.8891 128.494 48.9442L122.162 49.7318C121.717 49.7872 121.268 49.6634 120.913 49.3877C120.559 49.112 120.329 48.7069 120.274 48.2616L120.251 48.0741C120.196 47.6311 120.319 47.1844 120.593 46.8323C120.867 46.4801 121.27 46.2513 121.713 46.1962Z" fill="#AD6359" stroke="#001029" stroke-linecap="round" stroke-linejoin="round"/>
<path d="M38.4179 264.259C38.4179 264.259 32.2349 268.759 32.2349 269.659C32.2349 270.559 33.9179 279.037 44.3579 291.538C47.6609 295.471 44.0789 277.678 44.0789 277.678L45.4379 268.507L38.4179 264.259Z" fill="#001029" stroke="#001029" stroke-linecap="round" stroke-linejoin="round"/>
<path d="M40.5238 284.734C37.0948 280.234 34.2238 272.296 32.9998 268.606C32.5228 269.065 32.2168 269.443 32.2168 269.632C32.2168 270.532 33.8908 279.073 44.3578 291.538C45.2578 292.6 45.6358 292.069 45.7348 290.737C43.8544 288.865 42.1128 286.859 40.5238 284.734Z" fill="#0056D2"/>
<path d="M134.277 274.024C134.277 274.024 150.243 284.437 148.794 286.237C147.345 288.037 127.311 285.661 126.438 285.076C125.565 284.491 126.357 274.501 126.357 274.501L134.277 274.024Z" fill="#001029" stroke="#001029" stroke-linecap="round" stroke-linejoin="round"/>
<path d="M126.438 285.049C127.338 285.634 147.345 287.956 148.794 286.21C148.929 286.048 148.911 285.814 148.794 285.517C144.228 286.164 139.581 285.947 135.096 284.878C131.37 284.05 128.103 283.42 126.096 283.078C126.105 284.122 126.213 284.905 126.438 285.049Z" fill="#0056D2"/>
<path d="M174.192 92.1965C174.192 92.1965 163.779 92.5475 155.13 95.2385C146.481 97.9295 122.496 108.451 122.496 108.451L116.655 123.544C116.807 123.825 117.058 124.039 117.359 124.146C117.66 124.252 117.99 124.243 118.284 124.12C119.337 123.652 142.845 116.02 144.834 115.237C146.823 114.454 149.748 113.365 149.748 113.365L152.655 150.733L147.624 164.062C147.624 164.062 153.123 171.316 164.58 171.901C176.037 172.486 180.726 172.486 186.333 170.101C191.94 167.716 195.108 166.357 195.108 166.357L190.896 150.688L194.658 124.237C194.658 124.237 204.009 148.681 206.466 151.138C208.923 153.595 214.071 152.425 215.592 145.639C217.113 138.853 210.795 127.864 208.572 122.14C206.349 116.416 205.179 107.398 199.806 102.025C194.433 96.6515 183.192 93.9245 179.106 93.1325C175.02 92.3405 174.192 92.1965 174.192 92.1965Z" fill="#AD6359" stroke="#001029" stroke-linecap="round" stroke-linejoin="round"/>
<path d="M194.757 166.168L190.428 163.36C190.428 163.36 189.024 166.168 176.163 169.21C163.302 172.252 148.56 163.009 148.56 163.009C148.56 163.009 146.22 167.806 144.582 171.784C143.241 175.042 133.548 199.333 130.335 208.09C129.589 210.119 129.246 212.274 129.327 214.435L132.531 270.883L141.216 271.315L151.197 211.87L168.018 184.537H175.947L195.918 214.039L203.406 272.908L211.506 273.493L215.394 217.738C215.73 215.282 215.419 212.782 214.494 210.484L194.757 166.168Z" fill="#99C3FF" stroke="#001029" stroke-miterlimit="10"/>
<path d="M156.219 175.078C160.164 176.893 163.744 179.412 166.785 182.512" stroke="#001029" stroke-linecap="round" stroke-linejoin="round"/>
<path d="M177.747 182.908C179.956 178.081 183.665 174.097 188.322 171.55" stroke="#001029" stroke-linecap="round" stroke-linejoin="round"/>
<path d="M151.125 171.163C154.227 171.885 157.244 172.935 160.125 174.295" stroke="#001029" stroke-linecap="round" stroke-linejoin="round"/>
<path d="M208.572 122.14C206.349 116.407 205.179 107.398 199.806 102.025C194.433 96.6515 183.192 93.9245 179.106 93.1325C175.02 92.3405 174.192 92.2325 174.192 92.2325C174.192 92.2325 163.779 92.5835 155.13 95.2745C148.83 97.2365 134.295 103.375 126.951 106.561L129.543 120.394C136.293 118.171 143.754 115.714 144.843 115.273C146.832 114.454 149.757 113.401 149.757 113.401L152.664 150.769L147.633 164.098C147.633 164.098 153.132 171.352 164.589 171.937C176.046 172.522 180.735 172.522 186.342 170.137C191.949 167.752 195.117 166.393 195.117 166.393L190.905 150.724L194.658 124.237C194.658 124.237 197.079 130.537 199.779 137.098C202.479 134.974 207.375 131.608 212.379 130.798C210.975 127.495 209.418 124.399 208.572 122.14Z" fill="#001029" stroke="#001029" stroke-linecap="round" stroke-linejoin="round"/>
<path d="M167.442 158.572C167.442 158.572 183.696 150.013 187.98 140.572" stroke="#AD6359" stroke-linecap="round" stroke-linejoin="round"/>
<path d="M158.883 157.717C158.883 157.717 171.717 154.288 178.989 145.738" stroke="#AD6359" stroke-linecap="round" stroke-linejoin="round"/>
<path d="M146.472 105.516L149.694 120.457L149.469 104.661" stroke="#AD6359" stroke-linecap="round" stroke-linejoin="round"/>
<path d="M194.821 110.646L194.659 124.236L198.673 111.078" stroke="#AD6359" stroke-linecap="round" stroke-linejoin="round"/>
<path d="M171.501 93.2495C171.501 93.2495 166.002 92.0795 164.949 92.3495C163.896 92.6195 164.598 100.189 166.704 107.2C168.81 114.211 173.607 119.602 179.691 115.3C185.775 110.998 185.991 103.717 186.234 100.801L186.702 94.9505L180.276 93.6365L171.501 93.2495Z" fill="#AD6359" stroke="#001029" stroke-linecap="round" stroke-linejoin="round"/>
<path d="M167.289 92.8986C168.092 97.9365 169.296 102.902 170.889 107.749C173.229 114.301 179.781 111.349 181.689 106.228C182.943 102.501 183.846 98.6651 184.389 94.7706C184.389 94.7706 176.793 97.9296 172.932 96.1746C170.917 95.3317 169.02 94.2305 167.289 92.8986Z" fill="#AD6359" stroke="#001029" stroke-linecap="round" stroke-linejoin="round"/>
<path d="M162.492 79.5696C162.492 79.5696 160.863 76.9956 159.459 78.0486C158.055 79.1016 158.172 83.8896 159.459 86.1486C160.746 88.4076 163.518 88.2366 163.518 88.2366C163.518 88.2366 164.571 90.5766 166.794 94.5366C169.017 98.4966 173.094 101.908 177.207 101.674C181.32 101.44 183.75 98.8656 185.856 95.5896C187.261 93.1269 188.212 90.4322 188.664 87.6336C188.664 87.6336 195.333 84.2406 193.929 80.2716C193.795 79.7571 193.551 79.2777 193.214 78.8662C192.878 78.4547 192.456 78.1209 191.978 77.8875C191.5 77.6542 190.978 77.5269 190.446 77.5143C189.915 77.5017 189.387 77.6041 188.898 77.8146C188.898 77.8146 190.419 72.1986 189.132 67.1676C187.845 62.1366 184.92 58.8696 178.026 57.4656C171.132 56.0616 163.167 58.9776 161.997 60.8496C160.827 62.7216 161.178 65.5296 161.529 69.5076C161.88 73.4856 162.492 79.5696 162.492 79.5696Z" fill="#AD6359" stroke="#001029" stroke-linecap="round" stroke-linejoin="round"/>
<path d="M169.044 86.8145C169.044 86.8145 171.033 87.9845 176.064 87.6335C181.095 87.2825 182.958 85.8335 182.958 85.8335C182.958 85.8335 179.106 92.6195 177 94.1405C174.894 95.6615 170.448 89.5055 169.044 86.8145Z" fill="#001029" stroke="#001029" stroke-linecap="round" stroke-linejoin="round"/>
<path d="M177.351 81.5496C177.351 81.5496 178.251 83.6555 177.351 84.1235C176.808 84.3132 176.226 84.3697 175.656 84.2883C175.086 84.2069 174.544 83.9899 174.075 83.6556C173.884 83.4784 173.766 83.2361 173.744 82.9763C173.723 82.7164 173.799 82.4579 173.958 82.2516" stroke="#001029" stroke-linecap="round" stroke-linejoin="round"/>
<path d="M166.821 73.6025C166.821 73.6025 168.225 70.0025 173.022 71.9645" stroke="#001029" stroke-linecap="round" stroke-linejoin="round"/>
<path d="M178.872 72.1986C178.872 72.1986 182.265 69.4986 185.064 72.7836" stroke="#001029" stroke-linecap="round" stroke-linejoin="round"/>
<path d="M171.15 76.5815C171.15 77.3285 170.889 77.9315 170.565 77.9315C170.241 77.9315 169.98 77.3285 169.98 76.5815C169.98 75.8345 170.241 75.2405 170.565 75.2405C170.889 75.2405 171.15 75.8435 171.15 76.5815Z" fill="#001029" stroke="#001029" stroke-linecap="round" stroke-linejoin="round"/>
<path d="M181.329 76.5365C181.329 77.2745 181.059 77.8775 180.744 77.8775C180.429 77.8775 180.159 77.2745 180.159 76.5365C180.159 75.7985 180.42 75.1865 180.744 75.1865C181.068 75.1865 181.329 75.7805 181.329 76.5365Z" fill="#001029" stroke="#001029" stroke-linecap="round" stroke-linejoin="round"/>
<path d="M176.262 91.2246C175.031 91.211 173.813 91.4853 172.707 92.0256C174.273 93.7446 175.938 94.9506 177 94.1856C177.835 93.474 178.57 92.6536 179.187 91.7466C178.252 91.3953 177.261 91.2184 176.262 91.2246Z" fill="#AD6359" stroke="#001029" stroke-linecap="round" stroke-linejoin="round"/>
<path d="M162.843 56.0615C162.843 56.0615 159.108 58.2845 158.757 60.8495C158.406 63.4145 162.492 79.2185 162.492 79.5695C162.492 79.9205 164.364 80.1545 164.364 78.9845C164.364 77.8145 164.13 74.5385 163.896 72.7835C163.662 71.0285 166.596 70.2095 165.885 68.1035C165.174 65.9975 163.428 64.3595 163.779 63.7745C164.13 63.1895 168.108 61.4345 168.693 62.0195C169.278 62.6045 173.256 66.5825 175.479 66.3485C177.702 66.1145 176.298 61.7855 176.298 61.7855C176.298 61.7855 181.797 69.3905 183.894 68.6885C185.991 67.9865 186.468 64.7105 186.468 64.7105C186.468 64.7105 185.649 70.5605 186.234 71.2625C186.819 71.9645 187.755 73.0625 187.755 73.0625C187.755 73.0625 186.918 79.2365 187.404 79.2365C187.89 79.2365 189.159 79.3535 189.159 78.8855C189.159 78.4175 191.031 68.5895 191.031 65.7815C191.03 64.1003 190.497 62.4625 189.51 61.1015C189.51 61.1015 194.91 63.2075 192.669 59.9315C190.428 56.6555 185.181 53.7395 183.543 53.5055C181.905 53.2715 180.042 53.1545 180.042 53.1545C180.042 53.1545 187.287 50.9315 184.128 49.4105C180.969 47.8895 169.512 50.5805 166.002 52.9205C162.492 55.2605 162.843 56.0615 162.843 56.0615Z" fill="#001029" stroke="#001029" stroke-linecap="round" stroke-linejoin="round"/>
<path d="M146.004 71.3795C146.004 71.3795 150.216 71.8475 150.684 73.1345C151.152 74.4215 150.801 79.2185 150.333 80.0375C149.865 80.8565 148.695 80.3885 147.759 79.1375C146.823 77.8865 146.706 74.3405 146.706 74.3405L144.717 72.9365C144.717 72.9365 143.313 71.3795 146.004 71.3795Z" fill="#AD6359" stroke="#001029" stroke-linecap="round" stroke-linejoin="round"/>
<path d="M146.895 62.0375C146.895 62.0375 147.327 60.6245 144.249 60.0665C141.351 59.5445 141.126 60.8495 141.126 60.8495C141.074 60.9296 141.049 61.0241 141.054 61.1195C141.048 61.3208 141.088 61.5208 141.171 61.7045C141.304 61.9237 141.407 62.1598 141.477 62.4065C141.54 62.9285 140.757 62.9735 140.649 63.4865C140.6 63.6356 140.6 63.7964 140.649 63.9455C140.795 64.2958 140.826 64.6832 140.739 65.0525L139.947 67.7525C139.243 70.1522 138.239 72.4534 136.959 74.6015L135.69 76.7345C134.321 79.0324 133.333 81.5368 132.765 84.1505L131.127 91.6565C130.989 92.2806 130.976 92.9258 131.089 93.555C131.201 94.1841 131.437 94.7848 131.783 95.3226C132.128 95.8604 132.576 96.3246 133.102 96.6885C133.627 97.0525 134.219 97.3091 134.844 97.4435L136.014 97.7045H136.122L137.301 97.9565C138.562 98.2321 139.882 97.9954 140.969 97.2983C142.056 96.6012 142.821 95.501 143.097 94.2395L144.735 86.7335C145.301 84.1213 145.447 81.4356 145.167 78.7775L144.897 76.3115C144.634 73.8252 144.683 71.3158 145.041 68.8415L145.446 66.0425C145.52 65.6704 145.712 65.3323 145.995 65.0795C146.107 64.9687 146.185 64.8282 146.22 64.6745C146.31 64.2695 146.04 64.0985 145.905 63.7745C145.77 63.4505 145.905 63.1445 146.256 62.8745C146.493 62.7463 146.694 62.5606 146.841 62.3345C146.869 62.2911 146.889 62.2425 146.898 62.1915C146.907 62.1405 146.906 62.0881 146.895 62.0375Z" fill="#001029" stroke="#001029" stroke-linecap="round" stroke-linejoin="round"/>
<path d="M132.918 89.8296C132.918 89.8296 133.872 88.3986 136.743 89.0376C139.614 89.6766 140.568 90.6306 140.568 90.6306L142.962 81.0366C141.645 79.9448 140.023 79.2849 138.318 79.1466C137.253 79.1118 136.188 79.166 135.132 79.3086L132.918 89.8296Z" fill="#99C3FF" stroke="#001029" stroke-miterlimit="10"/>
<path d="M135.834 66.8165C135.834 66.8165 146.004 69.2735 146.004 70.5605C146.004 71.8475 146.355 76.8605 146.004 77.8145C145.818 78.2799 145.656 78.7545 145.518 79.2365C145.036 79.0321 144.567 78.7976 144.114 78.5345C143.295 78.0665 137.544 77.6345 137.544 77.6345C137.544 77.6345 142.242 78.9035 142.593 79.8395C142.944 80.7755 144.114 82.5395 142.944 82.6385C141.774 82.7375 140.37 81.0005 139.902 80.8385C139.434 80.6765 133.602 81.0725 133.602 81.0725C133.747 81.5249 133.781 82.0055 133.701 82.4736C133.62 82.9418 133.429 83.3838 133.142 83.7624C132.855 84.141 132.482 84.445 132.053 84.6488C131.624 84.8527 131.152 84.9503 130.677 84.9335C130.677 84.9335 124.008 111.367 122.487 116.164C120.966 120.961 120.147 124.111 116.187 124.579C112.227 125.047 109.752 120.979 108.699 116.866C107.646 112.753 110.103 109.612 112.092 107.272C114.081 104.932 126.708 81.4235 128.112 78.7415C129.516 76.0595 135.132 66.8165 135.834 66.8165Z" fill="#AD6359" stroke="#001029" stroke-linecap="round" stroke-linejoin="round"/>
<path d="M136.896 70.5605C139.04 70.7353 141.155 71.1674 143.196 71.8475C144.147 72.2093 145.053 72.6805 145.896 73.2516" stroke="#001029" stroke-linecap="round" stroke-linejoin="round"/>
<path d="M136.257 74.3315C136.257 74.3315 138.957 74.3315 140.955 74.4935C142.953 74.6555 146.121 77.1125 146.121 77.1125" stroke="#001029" stroke-linecap="round" stroke-linejoin="round"/>
<path d="M132.531 270.883C132.531 270.883 113.442 284.77 116.916 285.643C120.39 286.516 138.606 281.737 138.606 281.737L141.216 271.315L132.531 270.883Z" fill="#AD6359" stroke="#001029" stroke-miterlimit="10"/>
<path d="M203.379 272.908L203.703 284.77L224.529 287.371C224.529 287.371 226.698 284.77 223.224 282.601C219.75 280.432 211.524 273.493 211.524 273.493L203.379 272.908Z" fill="#AD6359" stroke="#001029" stroke-miterlimit="10"/>
<path d="M210.912 99.8016C209.903 99.7426 208.896 99.944 207.987 100.387C206.817 101.089 207.087 106.93 207.87 108.334C208.653 109.738 210.57 108.451 210.795 106.111C211.02 103.771 210.912 99.8016 210.912 99.8016Z" fill="#AD6359" stroke="#001029" stroke-linecap="round" stroke-linejoin="round"/>
<path d="M214.539 117.937C213.679 117.328 213.026 116.471 212.667 115.48C212.388 114.564 212.388 113.587 212.667 112.672C212.667 112.672 212.316 113.14 211.38 111.151C210.444 109.162 209.274 101.098 209.391 99.6936C209.508 98.2896 218.517 98.4066 219.291 98.1726C220.065 97.9386 220.578 101.917 220.578 105.769C220.578 109.621 219.057 116.884 219.057 119.341C219.057 121.798 218.517 138.538 216.186 145.441C213.855 152.344 211.686 153.019 208.293 152.551C204.9 152.083 203.037 150.445 204.081 144.721C205.125 138.997 214.539 117.937 214.539 117.937Z" fill="#AD6359" stroke="#001029" stroke-linecap="round" stroke-linejoin="round"/>
<path d="M210.093 102.484C210.537 101.71 211.088 101.004 211.731 100.387C212.316 100.036 218.751 99.3336 219.102 99.9186" stroke="#001029" stroke-linecap="round" stroke-linejoin="round"/>
<path d="M210.318 106.237C210.318 106.237 211.605 103.312 213.126 103.195C214.647 103.078 218.859 103.312 218.859 103.312" stroke="#001029" stroke-linecap="round" stroke-linejoin="round"/>
<path d="M211.264 110.206C211.264 110.206 211.147 107.749 212.317 106.93C213.487 106.111 219.337 106.462 219.337 106.462" stroke="#001029" stroke-linecap="round" stroke-linejoin="round"/>
<path d="M212.667 112.662L215.007 111.024L213.72 109.854" stroke="#001029" stroke-linecap="round" stroke-linejoin="round"/>
</svg>
